<?xml version="1.0" encoding="UTF-8" standalone="no"?><svg xmlns="http://www.w3.org/2000/svg" xmlns:xlink="http://www.w3.org/1999/xlink" contentStyleType="text/css" height="1146px" preserveAspectRatio="none" style="width:909px;height:1146px;background:#FFFFFF;" version="1.1" viewBox="0 0 909 1146" width="909px" zoomAndPan="magnify"><defs/><g><rect fill="#90CAF9" height="1127.6719" style="stroke:#181818;stroke-width:0.5;" width="100" x="14" y="6"/><text fill="#000000" font-family="sans-serif" font-size="13" font-weight="bold" lengthAdjust="spacing" textLength="85" x="21.5" y="18.5684">Presentation</text><rect fill="#BBDEFB" height="1127.6719" style="stroke:#181818;stroke-width:0.5;" width="224" x="116" y="6"/><text fill="#000000" font-family="sans-serif" font-size="13" font-weight="bold" lengthAdjust="spacing" textLength="90" x="183" y="18.5684">Domain layer</text><rect fill="#E3F2FD" height="1127.6719" style="stroke:#181818;stroke-width:0.5;" width="559" x="342" y="6"/><text fill="#000000" font-family="sans-serif" font-size="13" font-weight="bold" lengthAdjust="spacing" textLength="69" x="587" y="18.5684">Data layer</text><rect fill="#FFFFFF" height="87.9316" style="stroke:#181818;stroke-width:1.0;" width="10" x="411" y="317.6621"/><rect fill="#FFFFFF" height="29.3105" style="stroke:#181818;stroke-width:1.0;" width="10" x="713" y="346.9727"/><line style="stroke:#181818;stroke-width:0.5;stroke-dasharray:5.0,5.0;" x1="64" x2="64" y1="87.7988" y2="1068.1836"/><line style="stroke:#181818;stroke-width:0.5;stroke-dasharray:5.0,5.0;" x1="164" x2="164" y1="87.7988" y2="1068.1836"/><line style="stroke:#181818;stroke-width:0.5;stroke-dasharray:5.0,5.0;" x1="277" x2="277" y1="87.7988" y2="1068.1836"/><line style="stroke:#181818;stroke-width:0.5;stroke-dasharray:5.0,5.0;" x1="416" x2="416" y1="87.7988" y2="1068.1836"/><line style="stroke:#181818;stroke-width:0.5;stroke-dasharray:5.0,5.0;" x1="577" x2="577" y1="87.7988" y2="1068.1836"/><line style="stroke:#181818;stroke-width:0.5;stroke-dasharray:5.0,5.0;" x1="718" x2="718" y1="87.7988" y2="1068.1836"/><line style="stroke:#181818;stroke-width:0.5;stroke-dasharray:5.0,5.0;" x1="837" x2="837" y1="87.7988" y2="1068.1836"/><rect fill="#E2E2F0" height="30.4883" rx="2.5" ry="2.5" style="stroke:#181818;stroke-width:0.5;" width="92" x="18" y="56.3105"/><text fill="#000000" font-family="sans-serif" font-size="14" lengthAdjust="spacing" textLength="78" x="25" y="76.8457">Application</text><rect fill="#E2E2F0" height="30.4883" rx="2.5" ry="2.5" style="stroke:#181818;stroke-width:0.5;" width="92" x="18" y="1067.1836"/><text fill="#000000" font-family="sans-serif" font-size="14" lengthAdjust="spacing" textLength="78" x="25" y="1087.7188">Application</text><rect fill="#E2E2F0" height="30.4883" rx="2.5" ry="2.5" style="stroke:#181818;stroke-width:0.5;" width="88" x="120" y="56.3105"/><text fill="#000000" font-family="sans-serif" font-size="14" lengthAdjust="spacing" textLength="74" x="127" y="76.8457">ConfigBloc</text><rect fill="#E2E2F0" height="30.4883" rx="2.5" ry="2.5" style="stroke:#181818;stroke-width:0.5;" width="88" x="120" y="1067.1836"/><text fill="#000000" font-family="sans-serif" font-size="14" lengthAdjust="spacing" textLength="74" x="127" y="1087.7188">ConfigBloc</text><rect fill="#E2E2F0" height="30.4883" rx="2.5" ry="2.5" style="stroke:#181818;stroke-width:0.5;" width="118" x="218" y="56.3105"/><text fill="#000000" font-family="sans-serif" font-size="14" lengthAdjust="spacing" textLength="104" x="225" y="76.8457">ConnexionBloc</text><rect fill="#E2E2F0" height="30.4883" rx="2.5" ry="2.5" style="stroke:#181818;stroke-width:0.5;" width="118" x="218" y="1067.1836"/><text fill="#000000" font-family="sans-serif" font-size="14" lengthAdjust="spacing" textLength="104" x="225" y="1087.7188">ConnexionBloc</text><rect fill="#E2E2F0" height="30.4883" rx="2.5" ry="2.5" style="stroke:#181818;stroke-width:0.5;" width="140" x="346" y="56.3105"/><text fill="#000000" font-family="sans-serif" font-size="14" lengthAdjust="spacing" textLength="126" x="353" y="76.8457">ConfigsRepository</text><rect fill="#E2E2F0" height="30.4883" rx="2.5" ry="2.5" style="stroke:#181818;stroke-width:0.5;" width="140" x="346" y="1067.1836"/><text fill="#000000" font-family="sans-serif" font-size="14" lengthAdjust="spacing" textLength="126" x="353" y="1087.7188">ConfigsRepository</text><rect fill="#E2E2F0" height="30.4883" rx="2.5" ry="2.5" style="stroke:#181818;stroke-width:0.5;" width="163" x="496" y="56.3105"/><text fill="#000000" font-family="sans-serif" font-size="14" lengthAdjust="spacing" textLength="149" x="503" y="76.8457">ConnexionRepository</text><rect fill="#E2E2F0" height="30.4883" rx="2.5" ry="2.5" style="stroke:#181818;stroke-width:0.5;" width="163" x="496" y="1067.1836"/><text fill="#000000" font-family="sans-serif" font-size="14" lengthAdjust="spacing" textLength="149" x="503" y="1087.7188">ConnexionRepository</text><text fill="#000000" font-family="sans-serif" font-size="14" lengthAdjust="spacing" textLength="92" x="669" y="84.8457">Local Storage</text><path d="M700,35.3105 C700,25.3105 718,25.3105 718,25.3105 C718,25.3105 736,25.3105 736,35.3105 L736,61.3105 C736,71.3105 718,71.3105 718,71.3105 C718,71.3105 700,71.3105 700,61.3105 L700,35.3105 " fill="#E2E2F0" style="stroke:#181818;stroke-width:1.5;"/><path d="M700,35.3105 C700,45.3105 718,45.3105 718,45.3105 C718,45.3105 736,45.3105 736,35.3105 " fill="none" style="stroke:#181818;stroke-width:1.5;"/><text fill="#000000" font-family="sans-serif" font-size="14" lengthAdjust="spacing" textLength="92" x="669" y="1080.7188">Local Storage</text><path d="M700,1093.6719 C700,1083.6719 718,1083.6719 718,1083.6719 C718,1083.6719 736,1083.6719 736,1093.6719 L736,1119.6719 C736,1129.6719 718,1129.6719 718,1129.6719 C718,1129.6719 700,1129.6719 700,1119.6719 L700,1093.6719 " fill="#E2E2F0" style="stroke:#181818;stroke-width:1.5;"/><path d="M700,1093.6719 C700,1103.6719 718,1103.6719 718,1103.6719 C718,1103.6719 736,1103.6719 736,1093.6719 " fill="none" style="stroke:#181818;stroke-width:1.5;"/><rect fill="#E2E2F0" height="30.4883" rx="2.5" ry="2.5" style="stroke:#181818;stroke-width:0.5;" width="120" x="777" y="56.3105"/><text fill="#000000" font-family="sans-serif" font-size="14" lengthAdjust="spacing" textLength="106" x="784" y="76.8457">HassWebSocket</text><rect fill="#E2E2F0" height="30.4883" rx="2.5" ry="2.5" style="stroke:#181818;stroke-width:0.5;" width="120" x="777" y="1067.1836"/><text fill="#000000" font-family="sans-serif" font-size="14" lengthAdjust="spacing" textLength="106" x="784" y="1087.7188">HassWebSocket</text><rect fill="#FFFFFF" height="87.9316" style="stroke:#181818;stroke-width:1.0;" width="10" x="411" y="317.6621"/><rect fill="#FFFFFF" height="29.3105" style="stroke:#181818;stroke-width:1.0;" width="10" x="713" y="346.9727"/><rect fill="#EEEEEE" height="3" style="stroke:#EEEEEE;stroke-width:1.0;" width="902" x="0" y="118.4541"/><line style="stroke:#000000;stroke-width:1.0;" x1="0" x2="902" y1="118.4541" y2="118.4541"/><line style="stroke:#000000;stroke-width:1.0;" x1="0" x2="902" y1="121.4541" y2="121.4541"/><rect fill="#EEEEEE" height="23.3105" style="stroke:#000000;stroke-width:2.0;" width="118" x="392" y="107.7988"/><text fill="#000000" font-family="sans-serif" font-size="13" font-weight="bold" lengthAdjust="spacing" textLength="100" x="398" y="124.3672">On app launch</text><path d="M10,146.1094 L10,171.1094 L117,171.1094 L117,156.1094 L107,146.1094 L10,146.1094 " fill="#FEFFDD" style="stroke:#181818;stroke-width:0.5;"/><path d="M107,146.1094 L107,156.1094 L117,156.1094 L107,146.1094 " fill="#FEFFDD" style="stroke:#181818;stroke-width:0.5;"/><text fill="#000000" font-family="sans-serif" font-size="13" lengthAdjust="spacing" textLength="86" x="16" y="163.6777">LauncherPage</text><path d="M146,181.4199 L146,206.4199 L182,206.4199 L182,191.4199 L172,181.4199 L146,181.4199 " fill="#FFD700" style="stroke:#181818;stroke-width:0.5;"/><path d="M172,181.4199 L172,191.4199 L182,191.4199 L172,181.4199 " fill="#FFD700" style="stroke:#181818;stroke-width:0.5;"/><text fill="#000000" font-family="sans-serif" font-size="13" lengthAdjust="spacing" textLength="15" x="152" y="198.9883">S1</text><polygon fill="#181818" points="152,213.7305,162,217.7305,152,221.7305,156,217.7305" style="stroke:#181818;stroke-width:1.0;"/><line style="stroke:#181818;stroke-width:1.0;stroke-dasharray:2.0,2.0;" x1="64" x2="158" y1="217.7305" y2="217.7305"/><path d="M146,230.7305 L146,255.7305 L182,255.7305 L182,240.7305 L172,230.7305 L146,230.7305 " fill="#90EE90" style="stroke:#181818;stroke-width:0.5;"/><path d="M172,230.7305 L172,240.7305 L182,240.7305 L172,230.7305 " fill="#90EE90" style="stroke:#181818;stroke-width:0.5;"/><text fill="#000000" font-family="sans-serif" font-size="13" lengthAdjust="spacing" textLength="15" x="152" y="248.2988">E1</text><path d="M146,266.041 L146,291.041 L182,291.041 L182,276.041 L172,266.041 L146,266.041 " fill="#FFD700" style="stroke:#181818;stroke-width:0.5;"/><path d="M172,266.041 L172,276.041 L182,276.041 L172,266.041 " fill="#FFD700" style="stroke:#181818;stroke-width:0.5;"/><text fill="#000000" font-family="sans-serif" font-size="13" lengthAdjust="spacing" textLength="15" x="152" y="283.6094">S2</text><polygon fill="#181818" points="399,313.6621,409,317.6621,399,321.6621,403,317.6621" style="stroke:#181818;stroke-width:1.0;"/><line style="stroke:#181818;stroke-width:1.0;stroke-dasharray:2.0,2.0;" x1="164" x2="405" y1="317.6621" y2="317.6621"/><text fill="#000000" font-family="sans-serif" font-size="13" lengthAdjust="spacing" textLength="96" x="171" y="312.9199">getLastConfig()</text><polygon fill="#181818" points="701,342.9727,711,346.9727,701,350.9727,705,346.9727" style="stroke:#181818;stroke-width:1.0;"/><line style="stroke:#181818;stroke-width:1.0;stroke-dasharray:2.0,2.0;" x1="421" x2="707" y1="346.9727" y2="346.9727"/><text fill="#000000" font-family="sans-serif" font-size="13" lengthAdjust="spacing" textLength="56" x="428" y="342.2305">box.get()</text><polygon fill="#181818" points="432,372.2832,422,376.2832,432,380.2832,428,376.2832" style="stroke:#181818;stroke-width:1.0;"/><line style="stroke:#181818;stroke-width:1.0;stroke-dasharray:2.0,2.0;" x1="426" x2="717" y1="376.2832" y2="376.2832"/><text fill="#000000" font-family="sans-serif" font-size="13" lengthAdjust="spacing" textLength="42" x="438" y="371.541">Config</text><polygon fill="#181818" points="175,401.5938,165,405.5938,175,409.5938,171,405.5938" style="stroke:#181818;stroke-width:1.0;"/><line style="stroke:#181818;stroke-width:1.0;stroke-dasharray:2.0,2.0;" x1="169" x2="415" y1="405.5938" y2="405.5938"/><text fill="#000000" font-family="sans-serif" font-size="13" lengthAdjust="spacing" textLength="42" x="181" y="400.8516">Config</text><path d="M146,418.5938 L146,443.5938 L182,443.5938 L182,428.5938 L172,418.5938 L146,418.5938 " fill="#FFD700" style="stroke:#181818;stroke-width:0.5;"/><path d="M172,418.5938 L172,428.5938 L182,428.5938 L172,418.5938 " fill="#FFD700" style="stroke:#181818;stroke-width:0.5;"/><text fill="#000000" font-family="sans-serif" font-size="13" lengthAdjust="spacing" textLength="15" x="152" y="436.1621">S3</text><polygon fill="#181818" points="75,450.9043,65,454.9043,75,458.9043,71,454.9043" style="stroke:#181818;stroke-width:1.0;"/><line style="stroke:#181818;stroke-width:1.0;" x1="69" x2="163" y1="454.9043" y2="454.9043"/><line style="stroke:#181818;stroke-width:1.0;" x1="64" x2="106" y1="468.9043" y2="468.9043"/><line style="stroke:#181818;stroke-width:1.0;" x1="106" x2="106" y1="468.9043" y2="481.9043"/><line style="stroke:#181818;stroke-width:1.0;" x1="65" x2="106" y1="481.9043" y2="481.9043"/><polygon fill="#181818" points="75,477.9043,65,481.9043,75,485.9043,71,481.9043" style="stroke:#181818;stroke-width:1.0;"/><rect fill="#EEEEEE" height="3" style="stroke:#EEEEEE;stroke-width:1.0;" width="902" x="0" y="510.5596"/><line style="stroke:#000000;stroke-width:1.0;" x1="0" x2="902" y1="510.5596" y2="510.5596"/><line style="stroke:#000000;stroke-width:1.0;" x1="0" x2="902" y1="513.5596" y2="513.5596"/><rect fill="#EEEEEE" height="23.3105" style="stroke:#000000;stroke-width:2.0;" width="117" x="392.5" y="499.9043"/><text fill="#000000" font-family="sans-serif" font-size="13" font-weight="bold" lengthAdjust="spacing" textLength="99" x="398.5" y="516.4727">Verified config</text><path d="M5,538.2148 L5,563.2148 L123,563.2148 L123,548.2148 L113,538.2148 L5,538.2148 " fill="#FEFFDD" style="stroke:#181818;stroke-width:0.5;"/><path d="M113,538.2148 L113,548.2148 L123,548.2148 L113,538.2148 " fill="#FEFFDD" style="stroke:#181818;stroke-width:0.5;"/><text fill="#000000" font-family="sans-serif" font-size="13" lengthAdjust="spacing" textLength="97" x="11" y="555.7832">DashboardPage</text><path d="M259,573.5254 L259,598.5254 L295,598.5254 L295,583.5254 L285,573.5254 L259,573.5254 " fill="#FFD700" style="stroke:#181818;stroke-width:0.5;"/><path d="M285,573.5254 L285,583.5254 L295,583.5254 L285,573.5254 " fill="#FFD700" style="stroke:#181818;stroke-width:0.5;"/><text fill="#000000" font-family="sans-serif" font-size="13" lengthAdjust="spacing" textLength="15" x="265" y="591.0938">S1</text><polygon fill="#181818" points="265,605.8359,275,609.8359,265,613.8359,269,609.8359" style="stroke:#181818;stroke-width:1.0;"/><line style="stroke:#181818;stroke-width:1.0;stroke-dasharray:2.0,2.0;" x1="64" x2="271" y1="609.8359" y2="609.8359"/><path d="M259,622.8359 L259,647.8359 L295,647.8359 L295,632.8359 L285,622.8359 L259,622.8359 " fill="#90EE90" style="stroke:#181818;stroke-width:0.5;"/><path d="M285,622.8359 L285,632.8359 L295,632.8359 L285,622.8359 " fill="#90EE90" style="stroke:#181818;stroke-width:0.5;"/><text fill="#000000" font-family="sans-serif" font-size="13" lengthAdjust="spacing" textLength="15" x="265" y="640.4043">E1</text><path d="M259,658.1465 L259,683.1465 L295,683.1465 L295,668.1465 L285,658.1465 L259,658.1465 " fill="#FFD700" style="stroke:#181818;stroke-width:0.5;"/><path d="M285,658.1465 L285,668.1465 L295,668.1465 L285,658.1465 " fill="#FFD700" style="stroke:#181818;stroke-width:0.5;"/><text fill="#000000" font-family="sans-serif" font-size="13" lengthAdjust="spacing" textLength="15" x="265" y="675.7148">S2</text><polygon fill="#181818" points="565.5,705.7676,575.5,709.7676,565.5,713.7676,569.5,709.7676" style="stroke:#181818;stroke-width:1.0;"/><line style="stroke:#181818;stroke-width:1.0;stroke-dasharray:2.0,2.0;" x1="277" x2="571.5" y1="709.7676" y2="709.7676"/><text fill="#000000" font-family="sans-serif" font-size="13" lengthAdjust="spacing" textLength="45" x="284" y="705.0254">watch()</text><polygon fill="#181818" points="825,735.0781,835,739.0781,825,743.0781,829,739.0781" style="stroke:#181818;stroke-width:1.0;"/><line style="stroke:#181818;stroke-width:1.0;stroke-dasharray:2.0,2.0;" x1="577.5" x2="831" y1="739.0781" y2="739.0781"/><text fill="#000000" font-family="sans-serif" font-size="13" lengthAdjust="spacing" textLength="45" x="584.5" y="734.3359">watch()</text><polygon fill="#181818" points="288,764.3887,278,768.3887,288,772.3887,284,768.3887" style="stroke:#181818;stroke-width:1.0;"/><line style="stroke:#181818;stroke-width:1.0;" x1="282" x2="576.5" y1="768.3887" y2="768.3887"/><text fill="#000000" font-family="sans-serif" font-size="13" lengthAdjust="spacing" textLength="65" x="294" y="763.6465">connected</text><path d="M259,781.3887 L259,806.3887 L295,806.3887 L295,791.3887 L285,781.3887 L259,781.3887 " fill="#FFD700" style="stroke:#181818;stroke-width:0.5;"/><path d="M285,781.3887 L285,791.3887 L295,791.3887 L285,781.3887 " fill="#FFD700" style="stroke:#181818;stroke-width:0.5;"/><text fill="#000000" font-family="sans-serif" font-size="13" lengthAdjust="spacing" textLength="15" x="265" y="798.957">S3</text><polygon fill="#181818" points="288,829.0098,278,833.0098,288,837.0098,284,833.0098" style="stroke:#181818;stroke-width:1.0;"/><line style="stroke:#181818;stroke-width:1.0;" x1="282" x2="576.5" y1="833.0098" y2="833.0098"/><text fill="#000000" font-family="sans-serif" font-size="13" lengthAdjust="spacing" textLength="84" x="294" y="828.2676">disconnected</text><path d="M259,846.0098 L259,871.0098 L295,871.0098 L295,856.0098 L285,846.0098 L259,846.0098 " fill="#FFAAAA" style="stroke:#181818;stroke-width:0.5;"/><path d="M285,846.0098 L285,856.0098 L295,856.0098 L285,846.0098 " fill="#FFAAAA" style="stroke:#181818;stroke-width:0.5;"/><text fill="#000000" font-family="sans-serif" font-size="13" lengthAdjust="spacing" textLength="15" x="265" y="863.5781">S4</text><polygon fill="#181818" points="588.5,893.6309,578.5,897.6309,588.5,901.6309,584.5,897.6309" style="stroke:#181818;stroke-width:1.0;"/><line style="stroke:#181818;stroke-width:1.0;" x1="582.5" x2="836" y1="897.6309" y2="897.6309"/><text fill="#000000" font-family="sans-serif" font-size="13" lengthAdjust="spacing" textLength="53" x="594.5" y="892.8887">onData()</text><polygon fill="#181818" points="706,922.9414,716,926.9414,706,930.9414,710,926.9414" style="stroke:#181818;stroke-width:1.0;"/><line style="stroke:#181818;stroke-width:1.0;stroke-dasharray:2.0,2.0;" x1="577.5" x2="712" y1="926.9414" y2="926.9414"/><text fill="#000000" font-family="sans-serif" font-size="13" lengthAdjust="spacing" textLength="57" x="584.5" y="922.1992">box.put()</text><polygon fill="#181818" points="265,952.252,275,956.252,265,960.252,269,956.252" style="stroke:#181818;stroke-width:1.0;"/><line style="stroke:#181818;stroke-width:1.0;stroke-dasharray:2.0,2.0;" x1="64" x2="271" y1="956.252" y2="956.252"/><text fill="#000000" font-family="sans-serif" font-size="13" lengthAdjust="spacing" textLength="74" x="71" y="951.5098">callService()</text><path d="M259,969.252 L259,994.252 L295,994.252 L295,979.252 L285,969.252 L259,969.252 " fill="#90EE90" style="stroke:#181818;stroke-width:0.5;"/><path d="M285,969.252 L285,979.252 L295,979.252 L285,969.252 " fill="#90EE90" style="stroke:#181818;stroke-width:0.5;"/><text fill="#000000" font-family="sans-serif" font-size="13" lengthAdjust="spacing" textLength="15" x="265" y="986.8203">E2</text><polygon fill="#181818" points="565.5,1016.873,575.5,1020.873,565.5,1024.873,569.5,1020.873" style="stroke:#181818;stroke-width:1.0;"/><line style="stroke:#181818;stroke-width:1.0;stroke-dasharray:2.0,2.0;" x1="277" x2="571.5" y1="1020.873" y2="1020.873"/><text fill="#000000" font-family="sans-serif" font-size="13" lengthAdjust="spacing" textLength="74" x="284" y="1016.1309">callService()</text><polygon fill="#181818" points="825,1046.1836,835,1050.1836,825,1054.1836,829,1050.1836" style="stroke:#181818;stroke-width:1.0;"/><line style="stroke:#181818;stroke-width:1.0;stroke-dasharray:2.0,2.0;" x1="577.5" x2="831" y1="1050.1836" y2="1050.1836"/><text fill="#000000" font-family="sans-serif" font-size="13" lengthAdjust="spacing" textLength="74" x="584.5" y="1045.4414">callService()</text><!--MD5=[96d757dfb2f7d874fea8214aa820e409]
@startuml connexion.sequence

box "Presentation" #90CAF9
participant Application as App
end box

box "Domain layer" #BBDEFB
participant ConfigBloc
participant ConnexionBloc
end box

box "Data layer" #E3F2FD
participant ConfigsRepository
participant ConnexionRepository
database "Local Storage" as LocalStorage
participant HassWebSocket
end box

== On app launch ==
note over App : LauncherPage
note over ConfigBloc #gold: S1
App - -> ConfigBloc
note over ConfigBloc #LightGreen: E1
note over ConfigBloc #gold: S2
ConfigBloc - -> ConfigsRepository ++ : getLastConfig()
ConfigsRepository - -> LocalStorage ++ : box.get()
return Config
return Config
note over ConfigBloc #gold: S3
ConfigBloc -> App
App -> App
== Verified config ==
note over App : DashboardPage
note over ConnexionBloc #gold: S1
App - -> ConnexionBloc
note over ConnexionBloc #LightGreen: E1
note over ConnexionBloc #gold: S2
ConnexionBloc - -> ConnexionRepository : watch()
ConnexionRepository - -> HassWebSocket : watch()
ConnexionRepository -> ConnexionBloc : connected
note over ConnexionBloc #gold: S3
ConnexionRepository -> ConnexionBloc : disconnected
note over ConnexionBloc #FFAAAA: S4

HassWebSocket -> ConnexionRepository : onData()
ConnexionRepository - -> LocalStorage : box.put()
App - -> ConnexionBloc : callService()
note over ConnexionBloc #LightGreen: E2
ConnexionBloc - -> ConnexionRepository : callService()
ConnexionRepository - -> HassWebSocket : callService()


@enduml

PlantUML version 1.2022.7(Mon Aug 22 19:01:30 CEST 2022)
(GPL source distribution)
Java Runtime: Java(TM) SE Runtime Environment
JVM: Java HotSpot(TM) 64-Bit Server VM
Default Encoding: UTF-8
Language: fr
Country: FR
--></g></svg>