<?xml version="1.0" encoding="UTF-8" standalone="no"?><svg xmlns="http://www.w3.org/2000/svg" xmlns:xlink="http://www.w3.org/1999/xlink" contentStyleType="text/css" height="227px" preserveAspectRatio="none" style="width:464px;height:227px;background:#FFFFFF;" version="1.1" viewBox="0 0 464 227" width="464px" zoomAndPan="magnify"><defs/><g><!--MD5=[8f96a79255188d230e0e93a939ec7c22]
cluster hassPackage--><g id="cluster_hassPackage"><path d="M226.5,6 L320.5,6 A3.75,3.75 0 0 1 323,8.5 L330,28.4883 L454.5,28.4883 A2.5,2.5 0 0 1 457,30.9883 L457,217.5 A2.5,2.5 0 0 1 454.5,220 L226.5,220 A2.5,2.5 0 0 1 224,217.5 L224,8.5 A2.5,2.5 0 0 1 226.5,6 " fill="#DDDDDD" style="stroke:#000000;stroke-width:1.5;"/><line style="stroke:#000000;stroke-width:1.5;" x1="224" x2="330" y1="28.4883" y2="28.4883"/><text fill="#000000" font-family="sans-serif" font-size="14" font-weight="bold" lengthAdjust="spacing" textLength="93" x="228" y="21.5352">Hass models</text></g><!--MD5=[2d3053808731f77ac2e571b5fce90f5a]
class DiscoveryInfoModel--><g id="elem_DiscoveryInfoModel"><rect codeLine="12" fill="#F1F1F1" height="146.9297" id="DiscoveryInfoModel" rx="2.5" ry="2.5" style="stroke:#181818;stroke-width:0.5;" width="166" x="267" y="49"/><ellipse cx="282" cy="65" fill="#ADD1B2" rx="11" ry="11" style="stroke:#181818;stroke-width:1.0;"/><path d="M284.4731,71.1431 Q283.8921,71.4419 283.2529,71.5913 Q282.6138,71.7407 281.9082,71.7407 Q279.4014,71.7407 278.0815,70.0889 Q276.7617,68.437 276.7617,65.3159 Q276.7617,62.1865 278.0815,60.5347 Q279.4014,58.8828 281.9082,58.8828 Q282.6138,58.8828 283.2612,59.0322 Q283.9087,59.1816 284.4731,59.4805 L284.4731,62.2031 Q283.8423,61.6221 283.2488,61.3523 Q282.6553,61.0825 282.0244,61.0825 Q280.6797,61.0825 279.9949,62.1492 Q279.3101,63.2158 279.3101,65.3159 Q279.3101,67.4077 279.9949,68.4744 Q280.6797,69.541 282.0244,69.541 Q282.6553,69.541 283.2488,69.2712 Q283.8423,69.0015 284.4731,68.4204 Z " fill="#000000"/><text fill="#000000" font-family="sans-serif" font-size="14" lengthAdjust="spacing" textLength="134" x="296" y="70.291">DiscoveryInfoModel</text><line style="stroke:#181818;stroke-width:0.5;" x1="268" x2="432" y1="81" y2="81"/><text fill="#000000" font-family="sans-serif" font-size="14" lengthAdjust="spacing" textLength="132" x="273" y="98.5352">String? externalUrl;</text><text fill="#000000" font-family="sans-serif" font-size="14" lengthAdjust="spacing" textLength="128" x="273" y="115.0234">String? internalUrl;</text><text fill="#000000" font-family="sans-serif" font-size="14" lengthAdjust="spacing" textLength="149" x="273" y="131.5117">String? locationName;</text><text fill="#000000" font-family="sans-serif" font-size="14" lengthAdjust="spacing" textLength="105" x="273" y="148">String? version;</text><text fill="#000000" font-family="sans-serif" font-size="14" lengthAdjust="spacing" textLength="88" x="273" y="164.4883">String? state;</text><text fill="#000000" font-family="sans-serif" font-size="14" lengthAdjust="spacing" textLength="111" x="273" y="180.9766">bool? safeMode;</text><line style="stroke:#181818;stroke-width:0.5;" x1="268" x2="432" y1="187.9297" y2="187.9297"/></g><!--MD5=[c68a8638b97b71b43a24c67c7aac22a5]
class Configs--><g id="elem_Configs"><rect codeLine="2" fill="#F1F1F1" height="146.9297" id="Configs" rx="2.5" ry="2.5" style="stroke:#181818;stroke-width:0.5;" width="190" x="7" y="49"/><ellipse cx="71.25" cy="65" fill="#ADD1B2" rx="11" ry="11" style="stroke:#181818;stroke-width:1.0;"/><path d="M73.7231,71.1431 Q73.1421,71.4419 72.5029,71.5913 Q71.8638,71.7407 71.1582,71.7407 Q68.6514,71.7407 67.3315,70.0889 Q66.0117,68.437 66.0117,65.3159 Q66.0117,62.1865 67.3315,60.5347 Q68.6514,58.8828 71.1582,58.8828 Q71.8638,58.8828 72.5112,59.0322 Q73.1587,59.1816 73.7231,59.4805 L73.7231,62.2031 Q73.0923,61.6221 72.4988,61.3523 Q71.9053,61.0825 71.2744,61.0825 Q69.9297,61.0825 69.2449,62.1492 Q68.5601,63.2158 68.5601,65.3159 Q68.5601,67.4077 69.2449,68.4744 Q69.9297,69.541 71.2744,69.541 Q71.9053,69.541 72.4988,69.2712 Q73.0923,69.0015 73.7231,68.4204 Z " fill="#000000"/><text fill="#000000" font-family="sans-serif" font-size="14" lengthAdjust="spacing" textLength="53" x="91.75" y="70.291">Configs</text><line style="stroke:#181818;stroke-width:0.5;" x1="8" x2="196" y1="81" y2="81"/><text fill="#000000" font-family="sans-serif" font-size="14" lengthAdjust="spacing" textLength="35" x="13" y="98.5352">Int id</text><text fill="#000000" font-family="sans-serif" font-size="14" lengthAdjust="spacing" textLength="118" x="13" y="115.0234">Text? externalUrl</text><text fill="#000000" font-family="sans-serif" font-size="14" lengthAdjust="spacing" textLength="114" x="13" y="131.5117">Text? internalUrl</text><text fill="#000000" font-family="sans-serif" font-size="14" lengthAdjust="spacing" textLength="135" x="13" y="148">Text? locationName</text><text fill="#000000" font-family="sans-serif" font-size="14" lengthAdjust="spacing" textLength="91" x="13" y="164.4883">Text? version</text><text fill="#000000" font-family="sans-serif" font-size="14" lengthAdjust="spacing" textLength="178" x="13" y="180.9766">DateTime? lastConnection</text><line style="stroke:#181818;stroke-width:0.5;" x1="8" x2="196" y1="187.9297" y2="187.9297"/></g><!--MD5=[0891d22c3e8c1efd02a97ac3c413a47b]
reverse link Configs to hassPackage--><g id="link_Configs_hassPackage"><path codeLine="22" d="M202.3,122.5 C207.16,122.5 212.02,122.5 216.88,122.5 C218.095,122.5 219.31,122.5 220.525,122.5 C221.1325,122.5 221.74,122.5 222.3475,122.5 C222.6513,122.5 222.955,122.5 223.2588,122.5 C223.4106,122.5 223.5625,122.5 223.7144,122.5 C223.7903,122.5 223.8663,122.5 223.9422,122.5 " fill="none" id="Configs-backto-hassPackage" style="stroke:#181818;stroke-width:1.0;"/><polygon fill="#181818" points="197.21,122.5,206.21,126.5,202.21,122.5,206.21,118.5,197.21,122.5" style="stroke:#181818;stroke-width:1.0;"/></g><!--MD5=[3375c2bcb72c07eb1ee6667f30dfd03d]
@startuml config-models

class Configs {
  Int id
  Text? externalUrl
  Text? internalUrl
  Text? locationName
  Text? version
  DateTime? lastConnection
}

package "Hass models" as hassPackage #DDDDDD {
  class DiscoveryInfoModel {
    String? externalUrl;
    String? internalUrl;
    String? locationName;
    String? version;
    String? state;
    bool? safeMode;
  }
}

hassPackage -left-> Configs

@enduml

PlantUML version 1.2022.7(Mon Aug 22 19:01:30 CEST 2022)
(GPL source distribution)
Java Runtime: Java(TM) SE Runtime Environment
JVM: Java HotSpot(TM) 64-Bit Server VM
Default Encoding: UTF-8
Language: fr
Country: FR
--></g></svg>