<?xml version="1.0" encoding="UTF-8" standalone="no"?><svg xmlns="http://www.w3.org/2000/svg" xmlns:xlink="http://www.w3.org/1999/xlink" contentStyleType="text/css" height="972px" preserveAspectRatio="none" style="width:971px;height:972px;background:#FFFFFF;" version="1.1" viewBox="0 0 971 972" width="971px" zoomAndPan="magnify"><defs/><g><!--MD5=[8f96a79255188d230e0e93a939ec7c22]
cluster hassPackage--><g id="cluster_hassPackage"><path d="M226,49 L320,49 A3.75,3.75 0 0 1 322.5,51.5 L329.5,71.4883 L962,71.4883 A2.5,2.5 0 0 1 964.5,73.9883 L964.5,962.5 A2.5,2.5 0 0 1 962,965 L226,965 A2.5,2.5 0 0 1 223.5,962.5 L223.5,51.5 A2.5,2.5 0 0 1 226,49 " fill="#DDDDDD" style="stroke:#000000;stroke-width:1.5;"/><line style="stroke:#000000;stroke-width:1.5;" x1="223.5" x2="329.5" y1="71.4883" y2="71.4883"/><text fill="#000000" font-family="sans-serif" font-size="14" font-weight="bold" lengthAdjust="spacing" textLength="93" x="227.5" y="64.5352">Hass models</text></g><!--MD5=[c420e492392c99d3e88ee165ba7e1bad]
class StateModel--><g id="elem_StateModel"><rect codeLine="42" fill="#F1F1F1" height="130.4414" id="StateModel" rx="2.5" ry="2.5" style="stroke:#181818;stroke-width:0.5;" width="198" x="274.5" y="265.5"/><ellipse cx="331.25" cy="281.5" fill="#ADD1B2" rx="11" ry="11" style="stroke:#181818;stroke-width:1.0;"/><path d="M333.7231,287.6431 Q333.1421,287.9419 332.5029,288.0913 Q331.8638,288.2407 331.1582,288.2407 Q328.6514,288.2407 327.3315,286.5889 Q326.0117,284.937 326.0117,281.8159 Q326.0117,278.6865 327.3315,277.0347 Q328.6514,275.3828 331.1582,275.3828 Q331.8638,275.3828 332.5112,275.5322 Q333.1587,275.6816 333.7231,275.9805 L333.7231,278.7031 Q333.0923,278.1221 332.4988,277.8523 Q331.9053,277.5825 331.2744,277.5825 Q329.9297,277.5825 329.2449,278.6492 Q328.5601,279.7158 328.5601,281.8159 Q328.5601,283.9077 329.2449,284.9744 Q329.9297,286.041 331.2744,286.041 Q331.9053,286.041 332.4988,285.7712 Q333.0923,285.5015 333.7231,284.9204 Z " fill="#000000"/><text fill="#000000" font-family="sans-serif" font-size="14" lengthAdjust="spacing" textLength="76" x="351.75" y="286.791">StateModel</text><line style="stroke:#181818;stroke-width:0.5;" x1="275.5" x2="471.5" y1="297.5" y2="297.5"/><text fill="#000000" font-family="sans-serif" font-size="14" lengthAdjust="spacing" textLength="102" x="280.5" y="315.0352">String? entityId</text><text fill="#000000" font-family="sans-serif" font-size="14" lengthAdjust="spacing" textLength="84" x="280.5" y="331.5234">String? state</text><text fill="#000000" font-family="sans-serif" font-size="14" lengthAdjust="spacing" textLength="186" x="280.5" y="348.0117">AttributesModel? attributes</text><text fill="#000000" font-family="sans-serif" font-size="14" lengthAdjust="spacing" textLength="161" x="280.5" y="364.5">DateTime? lastChanged</text><text fill="#000000" font-family="sans-serif" font-size="14" lengthAdjust="spacing" textLength="157" x="280.5" y="380.9883">DateTime? lastUpdated</text><line style="stroke:#181818;stroke-width:0.5;" x1="275.5" x2="471.5" y1="387.9414" y2="387.9414"/></g><!--MD5=[cad6f65e08771e7d7a7b18e2096e2060]
class AttributesModel--><g id="elem_AttributesModel"><rect codeLine="50" fill="#F1F1F1" height="468.207" id="AttributesModel" rx="2.5" ry="2.5" style="stroke:#181818;stroke-width:0.5;" width="216" x="523.5" y="96"/><ellipse cx="572.25" cy="112" fill="#ADD1B2" rx="11" ry="11" style="stroke:#181818;stroke-width:1.0;"/><path d="M574.7231,118.1431 Q574.1421,118.4419 573.5029,118.5913 Q572.8638,118.7407 572.1582,118.7407 Q569.6514,118.7407 568.3315,117.0889 Q567.0117,115.437 567.0117,112.3159 Q567.0117,109.1865 568.3315,107.5347 Q569.6514,105.8828 572.1582,105.8828 Q572.8638,105.8828 573.5112,106.0322 Q574.1587,106.1816 574.7231,106.4805 L574.7231,109.2031 Q574.0923,108.6221 573.4988,108.3523 Q572.9053,108.0825 572.2744,108.0825 Q570.9297,108.0825 570.2449,109.1492 Q569.5601,110.2158 569.5601,112.3159 Q569.5601,114.4077 570.2449,115.4744 Q570.9297,116.541 572.2744,116.541 Q572.9053,116.541 573.4988,116.2712 Q574.0923,116.0015 574.7231,115.4204 Z " fill="#000000"/><text fill="#000000" font-family="sans-serif" font-size="14" lengthAdjust="spacing" textLength="110" x="592.75" y="117.291">AttributesModel</text><line style="stroke:#181818;stroke-width:0.5;" x1="524.5" x2="738.5" y1="128" y2="128"/><text fill="#000000" font-family="sans-serif" font-size="14" lengthAdjust="spacing" textLength="142" x="529.5" y="145.5352">String? friendlyName</text><text fill="#000000" font-family="sans-serif" font-size="14" lengthAdjust="spacing" textLength="158" x="529.5" y="162.0234">int? supportedFeatures</text><text fill="#000000" font-family="sans-serif" font-size="14" lengthAdjust="spacing" textLength="4" x="529.5" y="178.5117"> </text><text fill="#000000" font-family="sans-serif" font-size="14" lengthAdjust="spacing" textLength="133" x="529.5" y="215.4883">int? currentPosition</text><text fill="#000000" font-family="sans-serif" font-size="14" lengthAdjust="spacing" textLength="4" x="529.5" y="231.9766"> </text><line style="stroke:#181818;stroke-width:1.0;stroke-dasharray:1.0,2.0;" x1="524.5" x2="611.5" y1="193.709" y2="193.709"/><text fill="#000000" font-family="sans-serif" font-size="14" lengthAdjust="spacing" textLength="40" x="611.5" y="198.5">Cover</text><line style="stroke:#181818;stroke-width:1.0;stroke-dasharray:1.0,2.0;" x1="651.5" x2="738.5" y1="193.709" y2="193.709"/><text fill="#000000" font-family="sans-serif" font-size="14" lengthAdjust="spacing" textLength="167" x="529.5" y="268.9531">DateTime? lastTriggered</text><text fill="#000000" font-family="sans-serif" font-size="14" lengthAdjust="spacing" textLength="90" x="529.5" y="285.4414">String? mode</text><text fill="#000000" font-family="sans-serif" font-size="14" lengthAdjust="spacing" textLength="4" x="529.5" y="301.9297"> </text><line style="stroke:#181818;stroke-width:1.0;stroke-dasharray:1.0,2.0;" x1="524.5" x2="591" y1="247.1738" y2="247.1738"/><text fill="#000000" font-family="sans-serif" font-size="14" lengthAdjust="spacing" textLength="81" x="591" y="251.9648">Automation</text><line style="stroke:#181818;stroke-width:1.0;stroke-dasharray:1.0,2.0;" x1="672" x2="738.5" y1="247.1738" y2="247.1738"/><text fill="#000000" font-family="sans-serif" font-size="14" lengthAdjust="spacing" textLength="143" x="529.5" y="338.9063">double? temperature</text><text fill="#000000" font-family="sans-serif" font-size="14" lengthAdjust="spacing" textLength="88" x="529.5" y="355.3945">int? humidity</text><text fill="#000000" font-family="sans-serif" font-size="14" lengthAdjust="spacing" textLength="118" x="529.5" y="371.8828">double? pressure</text><text fill="#000000" font-family="sans-serif" font-size="14" lengthAdjust="spacing" textLength="143" x="529.5" y="388.3711">double? windBearing</text><text fill="#000000" font-family="sans-serif" font-size="14" lengthAdjust="spacing" textLength="133" x="529.5" y="404.8594">double? windSpeed</text><text fill="#000000" font-family="sans-serif" font-size="14" lengthAdjust="spacing" textLength="124" x="529.5" y="421.3477">String? attribution</text><text fill="#000000" font-family="sans-serif" font-size="14" lengthAdjust="spacing" textLength="204" x="529.5" y="437.8359">List&lt;ForecastModel&gt; forecast</text><text fill="#000000" font-family="sans-serif" font-size="14" lengthAdjust="spacing" textLength="4" x="529.5" y="454.3242"> </text><line style="stroke:#181818;stroke-width:1.0;stroke-dasharray:1.0,2.0;" x1="524.5" x2="572.5" y1="317.127" y2="317.127"/><text fill="#000000" font-family="sans-serif" font-size="14" lengthAdjust="spacing" textLength="118" x="572.5" y="321.918">Weather / Sensor</text><line style="stroke:#181818;stroke-width:1.0;stroke-dasharray:1.0,2.0;" x1="690.5" x2="738.5" y1="317.127" y2="317.127"/><text fill="#000000" font-family="sans-serif" font-size="14" lengthAdjust="spacing" textLength="72" x="529.5" y="491.3008">bool? isOn</text><text fill="#000000" font-family="sans-serif" font-size="14" lengthAdjust="spacing" textLength="130" x="529.5" y="507.7891">String? deviceClass</text><text fill="#000000" font-family="sans-serif" font-size="14" lengthAdjust="spacing" textLength="187" x="529.5" y="524.2773">String? unitOfMeasurement</text><text fill="#000000" font-family="sans-serif" font-size="14" lengthAdjust="spacing" textLength="78" x="529.5" y="540.7656">int? current</text><text fill="#000000" font-family="sans-serif" font-size="14" lengthAdjust="spacing" textLength="78" x="529.5" y="557.2539">int? voltage</text><line style="stroke:#181818;stroke-width:1.0;stroke-dasharray:1.0,2.0;" x1="524.5" x2="554.5" y1="469.5215" y2="469.5215"/><text fill="#000000" font-family="sans-serif" font-size="14" lengthAdjust="spacing" textLength="154" x="554.5" y="474.3125">Sensor / Binary sensor</text><line style="stroke:#181818;stroke-width:1.0;stroke-dasharray:1.0,2.0;" x1="708.5" x2="738.5" y1="469.5215" y2="469.5215"/></g><!--MD5=[3b617d4e3bd0edb2efa8dac0982c8b7f]
class ForecastModel--><g id="elem_ForecastModel"><rect codeLine="78" fill="#F1F1F1" height="163.418" id="ForecastModel" rx="2.5" ry="2.5" style="stroke:#181818;stroke-width:0.5;" width="157" x="783" y="248"/><ellipse cx="809.25" cy="264" fill="#ADD1B2" rx="11" ry="11" style="stroke:#181818;stroke-width:1.0;"/><path d="M811.7231,270.1431 Q811.1421,270.4419 810.5029,270.5913 Q809.8638,270.7407 809.1582,270.7407 Q806.6514,270.7407 805.3315,269.0889 Q804.0117,267.437 804.0117,264.3159 Q804.0117,261.1865 805.3315,259.5347 Q806.6514,257.8828 809.1582,257.8828 Q809.8638,257.8828 810.5112,258.0322 Q811.1587,258.1816 811.7231,258.4805 L811.7231,261.2031 Q811.0923,260.6221 810.4988,260.3523 Q809.9053,260.0825 809.2744,260.0825 Q807.9297,260.0825 807.2449,261.1492 Q806.5601,262.2158 806.5601,264.3159 Q806.5601,266.4077 807.2449,267.4744 Q807.9297,268.541 809.2744,268.541 Q809.9053,268.541 810.4988,268.2712 Q811.0923,268.0015 811.7231,267.4204 Z " fill="#000000"/><text fill="#000000" font-family="sans-serif" font-size="14" lengthAdjust="spacing" textLength="100" x="825.75" y="269.291">ForecastModel</text><line style="stroke:#181818;stroke-width:0.5;" x1="784" x2="939" y1="280" y2="280"/><text fill="#000000" font-family="sans-serif" font-size="14" lengthAdjust="spacing" textLength="116" x="789" y="297.5352">String? condition</text><text fill="#000000" font-family="sans-serif" font-size="14" lengthAdjust="spacing" textLength="145" x="789" y="314.0234">double? precipitation</text><text fill="#000000" font-family="sans-serif" font-size="14" lengthAdjust="spacing" textLength="143" x="789" y="330.5117">double? temperature</text><text fill="#000000" font-family="sans-serif" font-size="14" lengthAdjust="spacing" textLength="117" x="789" y="347">double? templow</text><text fill="#000000" font-family="sans-serif" font-size="14" lengthAdjust="spacing" textLength="143" x="789" y="363.4883">double? windBearing</text><text fill="#000000" font-family="sans-serif" font-size="14" lengthAdjust="spacing" textLength="133" x="789" y="379.9766">double? windSpeed</text><text fill="#000000" font-family="sans-serif" font-size="14" lengthAdjust="spacing" textLength="135" x="789" y="396.4648">DateTime? datetime</text><line style="stroke:#181818;stroke-width:0.5;" x1="784" x2="939" y1="403.418" y2="403.418"/></g><!--MD5=[1499b21a70e8fe1944bc4cdebe8209d2]
class DeviceType--><g id="elem_DeviceType"><rect codeLine="88" fill="#F1F1F1" height="179.9063" id="DeviceType" rx="2.5" ry="2.5" style="stroke:#888888;stroke-width:0.5;" width="109" x="293" y="736.5"/><ellipse cx="308" cy="752.5" fill="#EB937F" rx="11" ry="11" style="stroke:#181818;stroke-width:1.0;"/><path d="M311.6143,759 L303.8945,759 L303.8945,746.6069 L311.6143,746.6069 L311.6143,748.7651 L306.3433,748.7651 L306.3433,751.438 L311.1162,751.438 L311.1162,753.5962 L306.3433,753.5962 L306.3433,756.8418 L311.6143,756.8418 Z " fill="#000000"/><text fill="#888888" font-family="sans-serif" font-size="14" lengthAdjust="spacing" textLength="77" x="322" y="757.791">DeviceType</text><line style="stroke:#888888;stroke-width:0.5;" x1="294" x2="401" y1="768.5" y2="768.5"/><text fill="#888888" font-family="sans-serif" font-size="14" lengthAdjust="spacing" textLength="79" x="299" y="786.0352">automation</text><text fill="#888888" font-family="sans-serif" font-size="14" lengthAdjust="spacing" textLength="31" x="299" y="802.5234">light</text><text fill="#888888" font-family="sans-serif" font-size="14" lengthAdjust="spacing" textLength="37" x="299" y="819.0117">cover</text><text fill="#888888" font-family="sans-serif" font-size="14" lengthAdjust="spacing" textLength="49" x="299" y="835.5">weathe</text><text fill="#888888" font-family="sans-serif" font-size="14" lengthAdjust="spacing" textLength="90" x="299" y="851.9883">binarySensor</text><text fill="#888888" font-family="sans-serif" font-size="14" lengthAdjust="spacing" textLength="46" x="299" y="868.4766">sensor</text><text fill="#888888" font-family="sans-serif" font-size="14" lengthAdjust="spacing" textLength="43" x="299" y="884.9648">switch</text><text fill="#888888" font-family="sans-serif" font-size="14" lengthAdjust="spacing" textLength="83" x="299" y="901.4531">mediaPlayer</text><line style="stroke:#888888;stroke-width:0.5;" x1="294" x2="401" y1="908.4063" y2="908.4063"/></g><!--MD5=[855f6a7e9746c0cab62e044ff9d4e4e1]
class SensorDeviceType--><g id="elem_SensorDeviceType"><rect codeLine="99" fill="#FFEBEE" height="229.3711" id="SensorDeviceType" rx="2.5" ry="2.5" style="stroke:#F25D50;stroke-width:1.0;stroke-dasharray:7.0,7.0;" width="156" x="437.5" y="712"/><ellipse cx="452.5" cy="728" fill="#EB937F" rx="11" ry="11" style="stroke:#181818;stroke-width:1.0;"/><path d="M456.1143,734.5 L448.3945,734.5 L448.3945,722.1069 L456.1143,722.1069 L456.1143,724.2651 L450.8433,724.2651 L450.8433,726.938 L455.6162,726.938 L455.6162,729.0962 L450.8433,729.0962 L450.8433,732.3418 L456.1143,732.3418 Z " fill="#000000"/><text fill="#888888" font-family="sans-serif" font-size="14" lengthAdjust="spacing" textLength="124" x="466.5" y="733.291">SensorDeviceType</text><line style="stroke:#F25D50;stroke-width:1.0;stroke-dasharray:7.0,7.0;" x1="438.5" x2="592.5" y1="744" y2="744"/><text fill="#888888" font-family="sans-serif" font-size="14" lengthAdjust="spacing" textLength="57" x="443.5" y="761.5352">opening</text><text fill="#888888" font-family="sans-serif" font-size="14" lengthAdjust="spacing" textLength="31" x="443.5" y="778.0234">plug</text><text fill="#888888" font-family="sans-serif" font-size="14" lengthAdjust="spacing" textLength="49" x="443.5" y="794.5117">motion</text><text fill="#888888" font-family="sans-serif" font-size="14" lengthAdjust="spacing" textLength="45" x="443.5" y="811">smoke</text><text fill="#888888" font-family="sans-serif" font-size="14" lengthAdjust="spacing" textLength="48" x="443.5" y="827.4883">battery</text><text fill="#888888" font-family="sans-serif" font-size="14" lengthAdjust="spacing" textLength="79" x="443.5" y="843.9766">illuminance</text><text fill="#888888" font-family="sans-serif" font-size="14" lengthAdjust="spacing" textLength="85" x="443.5" y="860.4648">temperature</text><text fill="#888888" font-family="sans-serif" font-size="14" lengthAdjust="spacing" textLength="60" x="443.5" y="876.9531">humidity</text><text fill="#888888" font-family="sans-serif" font-size="14" lengthAdjust="spacing" textLength="60" x="443.5" y="893.4414">pressure</text><text fill="#888888" font-family="sans-serif" font-size="14" lengthAdjust="spacing" textLength="43" x="443.5" y="909.9297">power</text><text fill="#888888" font-family="sans-serif" font-size="14" lengthAdjust="spacing" textLength="72" x="443.5" y="926.418">timestamp</text><line style="stroke:#F25D50;stroke-width:1.0;stroke-dasharray:7.0,7.0;" x1="438.5" x2="592.5" y1="933.3711" y2="933.3711"/></g><!--MD5=[92c3b83ebc358b99645c50ce1e0a919a]
class States--><g id="elem_States"><rect codeLine="2" fill="#F1F1F1" height="645.0898" id="States" rx="2.5" ry="2.5" style="stroke:#181818;stroke-width:0.5;" width="189" x="7" y="7"/><ellipse cx="76.75" cy="23" fill="#ADD1B2" rx="11" ry="11" style="stroke:#181818;stroke-width:1.0;"/><path d="M79.2231,29.1431 Q78.6421,29.4419 78.0029,29.5913 Q77.3638,29.7407 76.6582,29.7407 Q74.1514,29.7407 72.8315,28.0889 Q71.5117,26.437 71.5117,23.3159 Q71.5117,20.1865 72.8315,18.5347 Q74.1514,16.8828 76.6582,16.8828 Q77.3638,16.8828 78.0112,17.0322 Q78.6587,17.1816 79.2231,17.4805 L79.2231,20.2031 Q78.5923,19.6221 77.9988,19.3523 Q77.4053,19.0825 76.7744,19.0825 Q75.4297,19.0825 74.7449,20.1492 Q74.0601,21.2158 74.0601,23.3159 Q74.0601,25.4077 74.7449,26.4744 Q75.4297,27.541 76.7744,27.541 Q77.4053,27.541 77.9988,27.2712 Q78.5923,27.0015 79.2231,26.4204 Z " fill="#000000"/><text fill="#000000" font-family="sans-serif" font-size="14" lengthAdjust="spacing" textLength="41" x="97.25" y="28.291">States</text><line style="stroke:#181818;stroke-width:0.5;" x1="8" x2="195" y1="39" y2="39"/><text fill="#000000" font-family="sans-serif" font-size="14" lengthAdjust="spacing" textLength="35" x="13" y="56.5352">Int id</text><text fill="#000000" font-family="sans-serif" font-size="14" lengthAdjust="spacing" textLength="92" x="13" y="73.0234">Text? entityId</text><text fill="#000000" font-family="sans-serif" font-size="14" lengthAdjust="spacing" textLength="161" x="13" y="89.5117">DateTime? lastChanged</text><text fill="#000000" font-family="sans-serif" font-size="14" lengthAdjust="spacing" textLength="157" x="13" y="106">DateTime? lastUpdated</text><text fill="#000000" font-family="sans-serif" font-size="14" lengthAdjust="spacing" textLength="125" x="13" y="142.9766">Text? displayLabel</text><text fill="#000000" font-family="sans-serif" font-size="14" lengthAdjust="spacing" textLength="122" x="13" y="159.4648">Text? displayType</text><line style="stroke:#181818;stroke-width:1.0;stroke-dasharray:1.0,2.0;" x1="8" x2="51.5" y1="121.1973" y2="121.1973"/><text fill="#000000" font-family="sans-serif" font-size="14" lengthAdjust="spacing" textLength="100" x="51.5" y="125.9883">Customization</text><line style="stroke:#181818;stroke-width:1.0;stroke-dasharray:1.0,2.0;" x1="151.5" x2="195" y1="121.1973" y2="121.1973"/><text fill="#000000" font-family="sans-serif" font-size="14" lengthAdjust="spacing" textLength="132" x="13" y="196.4414">Text? friendlyName</text><text fill="#000000" font-family="sans-serif" font-size="14" lengthAdjust="spacing" textLength="158" x="13" y="212.9297">Int? supportedFeatures</text><text fill="#000000" font-family="sans-serif" font-size="14" lengthAdjust="spacing" textLength="4" x="13" y="229.418"> </text><line style="stroke:#181818;stroke-width:1.0;stroke-dasharray:1.0,2.0;" x1="8" x2="67.5" y1="174.6621" y2="174.6621"/><text fill="#000000" font-family="sans-serif" font-size="14" lengthAdjust="spacing" textLength="68" x="67.5" y="179.4531">Attributes</text><line style="stroke:#181818;stroke-width:1.0;stroke-dasharray:1.0,2.0;" x1="135.5" x2="195" y1="174.6621" y2="174.6621"/><text fill="#000000" font-family="sans-serif" font-size="14" lengthAdjust="spacing" textLength="74" x="13" y="266.3945">Text? state</text><text fill="#000000" font-family="sans-serif" font-size="14" lengthAdjust="spacing" textLength="4" x="13" y="282.8828"> </text><line style="stroke:#181818;stroke-width:0.5;" x1="8" x2="60" y1="244.6152" y2="244.6152"/><text fill="#000000" font-family="sans-serif" font-size="14" lengthAdjust="spacing" textLength="83" x="60" y="249.4063">State Values</text><line style="stroke:#181818;stroke-width:0.5;" x1="143" x2="195" y1="244.6152" y2="244.6152"/><text fill="#000000" font-family="sans-serif" font-size="14" lengthAdjust="spacing" textLength="133" x="13" y="319.8594">Int? currentPosition</text><text fill="#000000" font-family="sans-serif" font-size="14" lengthAdjust="spacing" textLength="4" x="13" y="336.3477"> </text><line style="stroke:#181818;stroke-width:1.0;stroke-dasharray:1.0,2.0;" x1="8" x2="81.5" y1="298.0801" y2="298.0801"/><text fill="#000000" font-family="sans-serif" font-size="14" lengthAdjust="spacing" textLength="40" x="81.5" y="302.8711">Cover</text><line style="stroke:#181818;stroke-width:1.0;stroke-dasharray:1.0,2.0;" x1="121.5" x2="195" y1="298.0801" y2="298.0801"/><text fill="#000000" font-family="sans-serif" font-size="14" lengthAdjust="spacing" textLength="167" x="13" y="373.3242">DateTime? lastTriggered</text><text fill="#000000" font-family="sans-serif" font-size="14" lengthAdjust="spacing" textLength="80" x="13" y="389.8125">Text? mode</text><text fill="#000000" font-family="sans-serif" font-size="14" lengthAdjust="spacing" textLength="4" x="13" y="406.3008"> </text><line style="stroke:#181818;stroke-width:1.0;stroke-dasharray:1.0,2.0;" x1="8" x2="61" y1="351.5449" y2="351.5449"/><text fill="#000000" font-family="sans-serif" font-size="14" lengthAdjust="spacing" textLength="81" x="61" y="356.3359">Automation</text><line style="stroke:#181818;stroke-width:1.0;stroke-dasharray:1.0,2.0;" x1="142" x2="195" y1="351.5449" y2="351.5449"/><text fill="#000000" font-family="sans-serif" font-size="14" lengthAdjust="spacing" textLength="124" x="13" y="443.2773">Real? temperature</text><text fill="#000000" font-family="sans-serif" font-size="14" lengthAdjust="spacing" textLength="88" x="13" y="459.7656">Int? humidity</text><text fill="#000000" font-family="sans-serif" font-size="14" lengthAdjust="spacing" textLength="99" x="13" y="476.2539">Real? pressure</text><text fill="#000000" font-family="sans-serif" font-size="14" lengthAdjust="spacing" textLength="124" x="13" y="492.7422">Real? windBearing</text><text fill="#000000" font-family="sans-serif" font-size="14" lengthAdjust="spacing" textLength="114" x="13" y="509.2305">Real? windSpeed</text><text fill="#000000" font-family="sans-serif" font-size="14" lengthAdjust="spacing" textLength="114" x="13" y="525.7188">Text? attribution</text><text fill="#000000" font-family="sans-serif" font-size="14" lengthAdjust="spacing" textLength="4" x="13" y="542.207"> </text><line style="stroke:#181818;stroke-width:1.0;stroke-dasharray:1.0,2.0;" x1="8" x2="42.5" y1="421.498" y2="421.498"/><text fill="#000000" font-family="sans-serif" font-size="14" lengthAdjust="spacing" textLength="118" x="42.5" y="426.2891">Weather / Sensor</text><line style="stroke:#181818;stroke-width:1.0;stroke-dasharray:1.0,2.0;" x1="160.5" x2="195" y1="421.498" y2="421.498"/><text fill="#000000" font-family="sans-serif" font-size="14" lengthAdjust="spacing" textLength="71" x="13" y="579.1836">Bool? isOn</text><text fill="#000000" font-family="sans-serif" font-size="14" lengthAdjust="spacing" textLength="120" x="13" y="595.6719">Text? deviceClass</text><text fill="#000000" font-family="sans-serif" font-size="14" lengthAdjust="spacing" textLength="177" x="13" y="612.1602">Text? unitOfMeasurement</text><text fill="#000000" font-family="sans-serif" font-size="14" lengthAdjust="spacing" textLength="78" x="13" y="628.6484">Int? current</text><text fill="#000000" font-family="sans-serif" font-size="14" lengthAdjust="spacing" textLength="78" x="13" y="645.1367">Int? voltage</text><line style="stroke:#181818;stroke-width:1.0;stroke-dasharray:1.0,2.0;" x1="8" x2="24.5" y1="557.4043" y2="557.4043"/><text fill="#000000" font-family="sans-serif" font-size="14" lengthAdjust="spacing" textLength="154" x="24.5" y="562.1953">Sensor / Binary sensor</text><line style="stroke:#181818;stroke-width:1.0;stroke-dasharray:1.0,2.0;" x1="178.5" x2="195" y1="557.4043" y2="557.4043"/></g><!--MD5=[ef326760bae15f2cb8baa98b97e131a4]
reverse link StateModel to AttributesModel--><g id="link_StateModel_AttributesModel"><path codeLine="113" d="M473.5,341.5 C487.03,344.79 501.2,346.99 515.25,348.28 " fill="none" id="StateModel-backto-AttributesModel" style="stroke:#181818;stroke-width:1.0;"/><polygon fill="#181818" points="473.5,341.5,478.385,346.8044,485.1602,344.3353,480.2752,339.0309,473.5,341.5" style="stroke:#181818;stroke-width:1.0;"/></g><!--MD5=[db5470e3c8f43f6b5f63171268389b23]
reverse link AttributesModel to ForecastModel--><g id="link_AttributesModel_ForecastModel"><path codeLine="114" d="M740.5,432.5 C767.27,438.97 791.05,428.04 810.24,411.08 " fill="none" id="AttributesModel-backto-ForecastModel" style="stroke:#181818;stroke-width:1.0;"/><polygon fill="#181818" points="740.5,432.5,745.3924,437.7976,752.1642,435.3191,747.2718,430.0215,740.5,432.5" style="stroke:#181818;stroke-width:1.0;"/></g><!--MD5=[6610ca951a6d6e3ac8939045890d2f15]
reverse link StateModel to DeviceType--><g id="link_StateModel_DeviceType"><path codeLine="115" d="M369.3,410.52 C364.62,499.64 357.07,643.32 352.2,736.07 " fill="none" id="StateModel-backto-DeviceType" style="stroke:#181818;stroke-width:1.0;"/><polygon fill="#181818" points="369.98,397.52,365.6692,403.3007,369.3472,409.5033,373.658,403.7226,369.98,397.52" style="stroke:#181818;stroke-width:1.0;"/></g><!--MD5=[8e73d838e21a40d1217b2d62b56fba1e]
reverse link StateModel to SensorDeviceType--><g id="link_StateModel_SensorDeviceType"><path codeLine="116" d="M396.37,410.21 C419.78,491.83 456.39,619.46 482.85,711.7 " fill="none" id="StateModel-backto-SensorDeviceType" style="stroke:#181818;stroke-width:1.0;"/><polygon fill="#181818" points="392.72,397.52,390.5316,404.391,396.0323,409.0538,398.2208,402.1828,392.72,397.52" style="stroke:#181818;stroke-width:1.0;"/></g><!--MD5=[bb6a374c675796184feb8cf168271955]
reverse link States to hassPackage--><g id="link_States_hassPackage"><path codeLine="120" d="M201.36,329.5 C206.295,329.5 211.2275,329.5 216.1588,329.5 C217.3916,329.5 218.6243,329.5 219.857,329.5 C220.4733,329.5 221.0896,329.5 221.7059,329.5 C222.0141,329.5 222.3223,329.5 222.6304,329.5 C222.7845,329.5 222.9386,329.5 223.0926,329.5 C223.1697,329.5 223.2467,329.5 223.3237,329.5 C223.3623,329.5 223.4008,329.5 223.4393,329.5 " fill="none" id="States-backto-hassPackage" style="stroke:#181818;stroke-width:1.0;"/><polygon fill="#181818" points="196.21,329.5,205.21,333.5,201.21,329.5,205.21,325.5,196.21,329.5" style="stroke:#181818;stroke-width:1.0;"/></g><!--MD5=[ac9e57deb86611e749ed7be8016f5cdd]
@startuml states-models

class States {
  Int id
  Text? entityId
  DateTime? lastChanged
  DateTime? lastUpdated
  .. Customization ..
  Text? displayLabel
  Text? displayType
  .. Attributes ..
  Text? friendlyName
  Int? supportedFeatures

  __ State Values __
  Text? state

  .. Cover ..
  Int? currentPosition

  .. Automation ..
  DateTime? lastTriggered
  Text? mode

  .. Weather / Sensor ..
  Real? temperature
  Int? humidity
  Real? pressure
  Real? windBearing
  Real? windSpeed
  Text? attribution

  .. Sensor / Binary sensor ..
  Bool? isOn
  Text? deviceClass
  Text? unitOfMeasurement
  Int? current
  Int? voltage
}

package "Hass models" as hassPackage #DDDDDD {

  class StateModel {
    String? entityId
    String? state
    AttributesModel? attributes
    DateTime? lastChanged
    DateTime? lastUpdated
  }

  class AttributesModel {
    String? friendlyName
    int? supportedFeatures

    .. Cover ..
    int? currentPosition

    .. Automation ..
    DateTime? lastTriggered
    String? mode

    .. Weather / Sensor ..
    double? temperature
    int? humidity
    double? pressure
    double? windBearing
    double? windSpeed
    String? attribution
    List<ForecastModel> forecast

    .. Sensor / Binary sensor ..
    bool? isOn
    String? deviceClass
    String? unitOfMeasurement
    int? current
    int? voltage
  }

  class ForecastModel {
    String? condition
    double? precipitation
    double? temperature
    double? templow
    double? windBearing
    double? windSpeed
    DateTime? datetime
  }

  enum DeviceType #text:888888 ##888888 {
    automation
    light
    cover
    weathe
    binarySensor
    sensor
    switch
    mediaPlayer
  }

  enum SensorDeviceType #FFEBEE;text:888888 ##[dashed]F25D50 {
    opening
    plug
    motion
    smoke
    battery
    illuminance
    temperature
    humidity
    pressure
    power
    timestamp
  }

  StateModel::attributes *-right- AttributesModel
  AttributesModel::forecast *-right- ForecastModel
  StateModel *-down- DeviceType
  StateModel *-down- SensorDeviceType

}

hassPackage -left-> States

@enduml

PlantUML version 1.2022.7(Mon Aug 22 19:01:30 CEST 2022)
(GPL source distribution)
Java Runtime: Java(TM) SE Runtime Environment
JVM: Java HotSpot(TM) 64-Bit Server VM
Default Encoding: UTF-8
Language: fr
Country: FR
--></g></svg>