<svg width="192" height="192" viewBox="0 0 192 192" fill="none" xmlns="http://www.w3.org/2000/svg">
<path d="M36 123V69C36 63.4772 40.4771 59 46 59H136C141.523 59 146 63.4772 146 69V72C146 73.1046 146.895 74 148 74H151C153.761 74 156 76.2386 156 79V112C156 114.761 153.761 117 151 117H148C146.895 117 146 117.895 146 119V123C146 128.523 141.523 133 136 133H46C40.4772 133 36 128.523 36 123Z" fill="#EBEEF7" stroke="#192A59" stroke-width="4"/>
<path d="M53.5 74C53.5 72.8954 52.6046 72 51.5 72C50.3954 72 49.5 72.8954 49.5 74H53.5ZM49.5 117C49.5 118.105 50.3954 119 51.5 119C52.6046 119 53.5 118.105 53.5 117H49.5ZM69.5 74C69.5 72.8954 68.6046 72 67.5 72C66.3954 72 65.5 72.8954 65.5 74H69.5ZM65.5 117C65.5 118.105 66.3954 119 67.5 119C68.6046 119 69.5 118.105 69.5 117H65.5ZM85.5 74C85.5 72.8954 84.6046 72 83.5 72C82.3954 72 81.5 72.8954 81.5 74H85.5ZM81.5 117C81.5 118.105 82.3954 119 83.5 119C84.6046 119 85.5 118.105 85.5 117H81.5ZM49.5 74V117H53.5V74H49.5ZM65.5 74V117H69.5V74H65.5ZM81.5 74V117H85.5V74H81.5Z" fill="#E4963A"/>
</svg>
