<svg width="192" height="192" viewBox="0 0 192 192" fill="none" xmlns="http://www.w3.org/2000/svg">
<rect x="17.5" y="17.5" width="157" height="157" rx="8.5" fill="#CED1D9" stroke="#192A59" stroke-width="3"/>
<path d="M26 17.5H166C170.694 17.5 174.5 21.3056 174.5 26V35.5H17.5V26C17.5 21.3056 21.3056 17.5 26 17.5Z" fill="#3F5AA6" stroke="#192A59" stroke-width="3"/>
<path d="M26.5 93.5H165.5V158C165.5 162.142 162.142 165.5 158 165.5H34C29.8579 165.5 26.5 162.142 26.5 158V93.5Z" fill="#DAEBFF" stroke="#192A59"/>
<line x1="16" y1="45.5" x2="176" y2="45.5" stroke="#192A59"/>
<line x1="16" y1="61.5" x2="176" y2="61.5" stroke="#192A59"/>
<line x1="16" y1="77.5" x2="176" y2="77.5" stroke="#192A59"/>
<line x1="16" y1="93.5" x2="176" y2="93.5" stroke="#192A59"/>
<line x1="16" y1="35.5" x2="176" y2="35.5" stroke="#192A59" stroke-width="3"/>
</svg>
