<svg width="192" height="192" viewBox="0 0 192 192" fill="none" xmlns="http://www.w3.org/2000/svg">
<path d="M80 152C68.2332 152 58.1617 144.757 54.0184 134.496C51.3703 127.937 53.2506 120.662 55.6941 114.025L77.1847 55.6475C78.1485 53.0294 81.8515 53.0294 82.8153 55.6475L104.306 114.025C106.749 120.662 108.63 127.937 105.982 134.496C101.838 144.757 91.7668 152 80 152Z" fill="#8AE1FD" stroke="#192A59" stroke-width="4"/>
<path d="M123.5 95C116.845 95 111.17 90.7912 108.973 84.8812C107.694 81.4412 108.673 77.6873 109.987 74.2604L120.699 46.3095C121.683 43.741 125.317 43.741 126.301 46.3095L137.013 74.2604C138.327 77.6873 139.306 81.4412 138.027 84.8812C135.83 90.7912 130.155 95 123.5 95Z" fill="#8AE1FD" stroke="#192A59" stroke-width="4"/>
</svg>
