<svg width="192" height="192" viewBox="0 0 192 192" fill="none" xmlns="http://www.w3.org/2000/svg">
<path d="M76 153C64.2332 153 54.1617 145.757 50.0184 135.496C47.3703 128.937 49.2506 121.662 51.6941 115.025L75.0616 51.5492C75.3828 50.6765 76.6172 50.6765 76.9384 51.5492L100.306 115.025C102.749 121.662 104.63 128.937 101.982 135.496C97.8383 145.757 87.7668 153 76 153Z" stroke="black" stroke-width="4"/>
<path d="M127.5 95C120.845 95 115.17 90.7912 112.973 84.8812C111.694 81.4412 112.673 77.6873 113.987 74.2604L126.566 41.4365C126.894 40.5803 128.106 40.5803 128.434 41.4365L141.013 74.2604C142.327 77.6873 143.306 81.4412 142.027 84.8812C139.83 90.7912 134.155 95 127.5 95Z" stroke="black" stroke-width="4"/>
</svg>
