<svg width="192" height="192" viewBox="0 0 192 192" fill="none" xmlns="http://www.w3.org/2000/svg">
<rect x="39" y="84" width="118" height="20" fill="#3F5AA6"/>
<rect x="39" y="105" width="118" height="54" fill="#CED1D9"/>
<path d="M39.0807 104.813V85.8135C39.0807 84.7089 39.9761 83.8135 41.0807 83.8135H60.0807M39.0807 104.813V148.813C39.0807 154.336 43.5578 158.813 49.0807 158.813H147.081C152.604 158.813 157.081 154.336 157.081 148.813V104.813M39.0807 104.813H49.5807M157.081 104.813V85.8135C157.081 84.7089 156.185 83.8135 155.081 83.8135H140.581M157.081 104.813H130.081M140.581 83.8135L130.081 104.813M140.581 83.8135H113.581M130.081 104.813H103.081M113.581 83.8135L103.081 104.813M113.581 83.8135H87.0807M103.081 104.813H76.5807M87.0807 83.8135L76.5807 104.813M87.0807 83.8135H60.0807M76.5807 104.813H49.5807M60.0807 83.8135L49.5807 104.813" stroke="#192A59" stroke-width="4"/>
<path d="M150.165 38.8752L153.717 54.4758C153.963 55.5528 153.288 56.6247 152.211 56.87L138.073 60.0896L111.747 66.0848L85.9088 71.9689L59.5828 77.9641L41.0571 82.1829C39.9801 82.4282 38.9082 81.7539 38.6629 80.6769L35.1102 65.0764C34.4971 62.3839 36.1827 59.7041 38.8752 59.091L44.2379 57.8697L70.5639 51.8745L96.4024 45.9904L122.728 39.9952L144.179 35.1102C146.872 34.4971 149.551 36.1827 150.165 38.8752Z" fill="#3F5AA6"/>
<path d="M59.5828 77.9641L41.0571 82.1829C39.9801 82.4282 38.9082 81.7539 38.6629 80.6769L35.1102 65.0764C34.4971 62.3839 36.1827 59.7041 38.8752 59.091L44.2379 57.8697M59.5828 77.9641L44.2379 57.8697M59.5828 77.9641L85.9088 71.9689M44.2379 57.8697L70.5639 51.8745M85.9088 71.9689L70.5639 51.8745M85.9088 71.9689L111.747 66.0848M70.5639 51.8745L96.4024 45.9904M111.747 66.0848L96.4024 45.9904M111.747 66.0848L138.073 60.0896M96.4024 45.9904L122.728 39.9952M138.073 60.0896L152.211 56.87C153.288 56.6247 153.963 55.5528 153.717 54.4758L150.165 38.8752C149.551 36.1827 146.872 34.4971 144.179 35.1102L122.728 39.9952M138.073 60.0896L122.728 39.9952" stroke="#192A59" stroke-width="4"/>
</svg>
