<svg width="192" height="192" viewBox="0 0 192 192" fill="none" xmlns="http://www.w3.org/2000/svg">
<path d="M39.0807 104.814V85.8135C39.0807 84.7089 39.9761 83.8135 41.0807 83.8135H60.0807M39.0807 104.814V148.814C39.0807 154.336 43.5578 158.814 49.0807 158.814H147.081C152.604 158.814 157.081 154.336 157.081 148.814V104.814M39.0807 104.814H49.5807M157.081 104.814V85.8135C157.081 84.7089 156.185 83.8135 155.081 83.8135H140.581M157.081 104.814H130.081M140.581 83.8135L130.081 104.814M140.581 83.8135H113.581M130.081 104.814H103.081M113.581 83.8135L103.081 104.814M113.581 83.8135H87.0807M103.081 104.814H76.5807M87.0807 83.8135L76.5807 104.814M87.0807 83.8135H60.0807M76.5807 104.814H49.5807M60.0807 83.8135L49.5807 104.814" stroke="black" stroke-width="4"/>
<path d="M59.5828 77.9641L41.0571 82.1829C39.9801 82.4282 38.9082 81.7539 38.6629 80.6769L35.1102 65.0763C34.4971 62.3838 36.1827 59.7041 38.8752 59.0909L44.2379 57.8697M59.5828 77.9641L44.2379 57.8697M59.5828 77.9641L85.9088 71.9689M44.2379 57.8697L70.5639 51.8745M85.9088 71.9689L70.5639 51.8745M85.9088 71.9689L111.747 66.0847M70.5639 51.8745L96.4024 45.9903M111.747 66.0847L96.4024 45.9903M111.747 66.0847L138.073 60.0896M96.4024 45.9903L122.728 39.9952M138.073 60.0896L152.211 56.8699C153.288 56.6247 153.963 55.5528 153.717 54.4758L150.165 38.8752C149.551 36.1827 146.872 34.4971 144.179 35.1102L122.728 39.9952M138.073 60.0896L122.728 39.9952" stroke="black" stroke-width="4"/>
</svg>
