<?xml version="1.0" encoding="UTF-8" standalone="no"?><svg xmlns="http://www.w3.org/2000/svg" xmlns:xlink="http://www.w3.org/1999/xlink" contentStyleType="text/css" height="313px" preserveAspectRatio="none" style="width:519px;height:313px;background:#FFFFFF;" version="1.1" viewBox="0 0 519 313" width="519px" zoomAndPan="magnify"><defs/><g><!--MD5=[3802b41e52d9033e608a44ca467c606b]
class FlexTabs--><g id="elem_FlexTabs"><rect codeLine="2" fill="#F1F1F1" height="97.4648" id="FlexTabs" rx="2.5" ry="2.5" style="stroke:#181818;stroke-width:0.5;" width="94" x="7" y="108"/><ellipse cx="22" cy="124" fill="#ADD1B2" rx="11" ry="11" style="stroke:#181818;stroke-width:1.0;"/><path d="M24.4731,130.1431 Q23.8921,130.4419 23.2529,130.5913 Q22.6138,130.7407 21.9082,130.7407 Q19.4014,130.7407 18.0815,129.0889 Q16.7617,127.437 16.7617,124.3159 Q16.7617,121.1865 18.0815,119.5347 Q19.4014,117.8828 21.9082,117.8828 Q22.6138,117.8828 23.2612,118.0322 Q23.9087,118.1816 24.4731,118.4805 L24.4731,121.2031 Q23.8423,120.6221 23.2488,120.3523 Q22.6553,120.0825 22.0244,120.0825 Q20.6797,120.0825 19.9949,121.1492 Q19.3101,122.2158 19.3101,124.3159 Q19.3101,126.4077 19.9949,127.4744 Q20.6797,128.541 22.0244,128.541 Q22.6553,128.541 23.2488,128.2712 Q23.8423,128.0015 24.4731,127.4204 Z " fill="#000000"/><text fill="#000000" font-family="sans-serif" font-size="14" lengthAdjust="spacing" textLength="62" x="36" y="129.291">FlexTabs</text><line style="stroke:#181818;stroke-width:0.5;" x1="8" x2="100" y1="140" y2="140"/><text fill="#000000" font-family="sans-serif" font-size="14" lengthAdjust="spacing" textLength="35" x="13" y="157.5352">Int id</text><text fill="#000000" font-family="sans-serif" font-size="14" lengthAdjust="spacing" textLength="68" x="13" y="174.0234">Text label</text><text fill="#000000" font-family="sans-serif" font-size="14" lengthAdjust="spacing" textLength="60" x="13" y="190.5117">Int order</text><line style="stroke:#181818;stroke-width:0.5;" x1="8" x2="100" y1="197.4648" y2="197.4648"/></g><!--MD5=[68ae7ee987e44e26f25b13549816da20]
class FlexCards--><g id="elem_FlexCards"><rect codeLine="8" fill="#F1F1F1" height="274.8359" id="FlexCards" rx="2.5" ry="2.5" style="stroke:#181818;stroke-width:0.5;" width="136" x="152" y="20"/><ellipse cx="182.75" cy="36" fill="#ADD1B2" rx="11" ry="11" style="stroke:#181818;stroke-width:1.0;"/><path d="M185.2231,42.1431 Q184.6421,42.4419 184.0029,42.5913 Q183.3638,42.7407 182.6582,42.7407 Q180.1514,42.7407 178.8315,41.0889 Q177.5117,39.437 177.5117,36.3159 Q177.5117,33.1865 178.8315,31.5347 Q180.1514,29.8828 182.6582,29.8828 Q183.3638,29.8828 184.0112,30.0322 Q184.6587,30.1816 185.2231,30.4805 L185.2231,33.2031 Q184.5923,32.6221 183.9988,32.3523 Q183.4053,32.0825 182.7744,32.0825 Q181.4297,32.0825 180.7449,33.1492 Q180.0601,34.2158 180.0601,36.3159 Q180.0601,38.4077 180.7449,39.4744 Q181.4297,40.541 182.7744,40.541 Q183.4053,40.541 183.9988,40.2712 Q184.5923,40.0015 185.2231,39.4204 Z " fill="#000000"/><text fill="#000000" font-family="sans-serif" font-size="14" lengthAdjust="spacing" textLength="69" x="200.25" y="41.291">FlexCards</text><line style="stroke:#181818;stroke-width:0.5;" x1="153" x2="287" y1="52" y2="52"/><text fill="#000000" font-family="sans-serif" font-size="14" lengthAdjust="spacing" textLength="35" x="158" y="69.5352">Int id</text><text fill="#000000" font-family="sans-serif" font-size="14" lengthAdjust="spacing" textLength="57" x="158" y="86.0234">Int tabId</text><text fill="#000000" font-family="sans-serif" font-size="14" lengthAdjust="spacing" textLength="64" x="158" y="102.5117">Text type</text><text fill="#000000" font-family="sans-serif" font-size="14" lengthAdjust="spacing" textLength="74" x="158" y="119">Int? stateId</text><text fill="#000000" font-family="sans-serif" font-size="14" lengthAdjust="spacing" textLength="86" x="158" y="135.4883">Int? parentId</text><text fill="#000000" font-family="sans-serif" font-size="14" lengthAdjust="spacing" textLength="78" x="158" y="151.9766">Int position</text><text fill="#000000" font-family="sans-serif" font-size="14" lengthAdjust="spacing" textLength="122" x="158" y="168.4648">Int horizontalFlex</text><text fill="#000000" font-family="sans-serif" font-size="14" lengthAdjust="spacing" textLength="4" x="158" y="184.9531"> </text><text fill="#000000" font-family="sans-serif" font-size="14" lengthAdjust="spacing" textLength="66" x="158" y="221.9297">Int height</text><text fill="#000000" font-family="sans-serif" font-size="14" lengthAdjust="spacing" textLength="124" x="158" y="238.418">Int displayLeading</text><text fill="#000000" font-family="sans-serif" font-size="14" lengthAdjust="spacing" textLength="123" x="158" y="254.9063">Int displayTrailing</text><text fill="#000000" font-family="sans-serif" font-size="14" lengthAdjust="spacing" textLength="100" x="158" y="271.3945">Int displayTitle</text><text fill="#000000" font-family="sans-serif" font-size="14" lengthAdjust="spacing" textLength="122" x="158" y="287.8828">Int displaySubtitle</text><line style="stroke:#181818;stroke-width:1.0;stroke-dasharray:1.0,2.0;" x1="153" x2="170" y1="200.1504" y2="200.1504"/><text fill="#000000" font-family="sans-serif" font-size="14" lengthAdjust="spacing" textLength="100" x="170" y="204.9414">Customization</text><line style="stroke:#181818;stroke-width:1.0;stroke-dasharray:1.0,2.0;" x1="270" x2="287" y1="200.1504" y2="200.1504"/></g><!--MD5=[92c3b83ebc358b99645c50ce1e0a919a]
class States--><g id="elem_States"><rect codeLine="25" fill="#F1F1F1" height="299.3242" id="States" rx="2.5" ry="2.5" style="stroke:#181818;stroke-width:0.5;" width="173" x="339.5" y="7"/><ellipse cx="401.25" cy="23" fill="#ADD1B2" rx="11" ry="11" style="stroke:#181818;stroke-width:1.0;"/><path d="M403.7231,29.1431 Q403.1421,29.4419 402.5029,29.5913 Q401.8638,29.7407 401.1582,29.7407 Q398.6514,29.7407 397.3315,28.0889 Q396.0117,26.437 396.0117,23.3159 Q396.0117,20.1865 397.3315,18.5347 Q398.6514,16.8828 401.1582,16.8828 Q401.8638,16.8828 402.5112,17.0322 Q403.1587,17.1816 403.7231,17.4805 L403.7231,20.2031 Q403.0923,19.6221 402.4988,19.3523 Q401.9053,19.0825 401.2744,19.0825 Q399.9297,19.0825 399.2449,20.1492 Q398.5601,21.2158 398.5601,23.3159 Q398.5601,25.4077 399.2449,26.4744 Q399.9297,27.541 401.2744,27.541 Q401.9053,27.541 402.4988,27.2712 Q403.0923,27.0015 403.7231,26.4204 Z " fill="#000000"/><text fill="#000000" font-family="sans-serif" font-size="14" lengthAdjust="spacing" textLength="41" x="421.75" y="28.291">States</text><line style="stroke:#181818;stroke-width:0.5;" x1="340.5" x2="511.5" y1="39" y2="39"/><text fill="#000000" font-family="sans-serif" font-size="14" lengthAdjust="spacing" textLength="35" x="345.5" y="56.5352">Int id</text><text fill="#000000" font-family="sans-serif" font-size="14" lengthAdjust="spacing" textLength="92" x="345.5" y="73.0234">Text? entityId</text><text fill="#000000" font-family="sans-serif" font-size="14" lengthAdjust="spacing" textLength="161" x="345.5" y="89.5117">DateTime? lastChanged</text><text fill="#000000" font-family="sans-serif" font-size="14" lengthAdjust="spacing" textLength="157" x="345.5" y="106">DateTime? lastUpdated</text><text fill="#000000" font-family="sans-serif" font-size="14" lengthAdjust="spacing" textLength="4" x="345.5" y="122.4883"> </text><text fill="#000000" font-family="sans-serif" font-size="14" lengthAdjust="spacing" textLength="125" x="345.5" y="159.4648">Text? displayLabel</text><text fill="#000000" font-family="sans-serif" font-size="14" lengthAdjust="spacing" textLength="122" x="345.5" y="175.9531">Text? displayType</text><text fill="#000000" font-family="sans-serif" font-size="14" lengthAdjust="spacing" textLength="4" x="345.5" y="192.4414"> </text><line style="stroke:#181818;stroke-width:1.0;stroke-dasharray:1.0,2.0;" x1="340.5" x2="376" y1="137.6855" y2="137.6855"/><text fill="#000000" font-family="sans-serif" font-size="14" lengthAdjust="spacing" textLength="100" x="376" y="142.4766">Customization</text><line style="stroke:#181818;stroke-width:1.0;stroke-dasharray:1.0,2.0;" x1="476" x2="511.5" y1="137.6855" y2="137.6855"/><text fill="#000000" font-family="sans-serif" font-size="14" lengthAdjust="spacing" textLength="132" x="345.5" y="229.418">Text? friendlyName</text><text fill="#000000" font-family="sans-serif" font-size="14" lengthAdjust="spacing" textLength="158" x="345.5" y="245.9063">Int? supportedFeatures</text><text fill="#000000" font-family="sans-serif" font-size="14" lengthAdjust="spacing" textLength="4" x="345.5" y="262.3945"> </text><line style="stroke:#181818;stroke-width:1.0;stroke-dasharray:1.0,2.0;" x1="340.5" x2="392" y1="207.6387" y2="207.6387"/><text fill="#000000" font-family="sans-serif" font-size="14" lengthAdjust="spacing" textLength="68" x="392" y="212.4297">Attributes</text><line style="stroke:#181818;stroke-width:1.0;stroke-dasharray:1.0,2.0;" x1="460" x2="511.5" y1="207.6387" y2="207.6387"/><text fill="#000000" font-family="sans-serif" font-size="14" lengthAdjust="spacing" textLength="12" x="345.5" y="299.3711">...</text><line style="stroke:#181818;stroke-width:0.5;" x1="340.5" x2="384.5" y1="277.5918" y2="277.5918"/><text fill="#000000" font-family="sans-serif" font-size="14" lengthAdjust="spacing" textLength="83" x="384.5" y="282.3828">State Values</text><line style="stroke:#181818;stroke-width:0.5;" x1="467.5" x2="511.5" y1="277.5918" y2="277.5918"/></g><!--MD5=[b74d0b4b6f15ad54bc57ccc5b28e7fba]
link FlexTabs to FlexCards--><g id="link_FlexTabs_FlexCards"><path codeLine="43" d="M102,152 C136.78,152 117.37,93.88 141.14,82.08 " fill="none" id="FlexTabs-to-FlexCards" style="stroke:#181818;stroke-width:1.0;"/><polygon fill="#181818" points="151,80,144.3028,77.3264,139.2591,82.4801,145.9562,85.1537,151,80" style="stroke:#181818;stroke-width:1.0;"/></g><!--MD5=[34ee83ce8c091ad9d2af9a605ea41475]
reverse link FlexCards to States--><g id="link_FlexCards_States"><path codeLine="44" d="M289,112 C324.05,112 303.95,51 339,51 " fill="none" id="FlexCards-backto-States" style="stroke:#181818;stroke-width:1.0;"/><polygon fill="#181818" points="289,112,295,116,301,112,295,108,289,112" style="stroke:#181818;stroke-width:1.0;"/></g><!--MD5=[30418f670eec53629f298f3606204d5b]
@startuml layout-models

class FlexTabs {
  Int id
  Text label
  Int order
}

class FlexCards {
  Int id
  Int tabId
  Text type
  Int? stateId
  Int? parentId
  Int position
  Int horizontalFlex
  
  .. Customization ..
  Int height
  Int displayLeading
  Int displayTrailing
  Int displayTitle
  Int displaySubtitle
}

class States {
  Int id
  Text? entityId
  DateTime? lastChanged
  DateTime? lastUpdated

  .. Customization ..
  Text? displayLabel
  Text? displayType

  .. Attributes ..
  Text? friendlyName
  Int? supportedFeatures

  __ State Values __
  ...
}

FlexCards::tabId *-left- FlexTabs::id
FlexCards::stateId *-right- States::id

@enduml

PlantUML version 1.2022.7(Mon Aug 22 19:01:30 CEST 2022)
(GPL source distribution)
Java Runtime: Java(TM) SE Runtime Environment
JVM: Java HotSpot(TM) 64-Bit Server VM
Default Encoding: UTF-8
Language: fr
Country: FR
--></g></svg>