<svg width="192" height="192" viewBox="0 0 192 192" fill="none" xmlns="http://www.w3.org/2000/svg">
<path d="M36 123V69C36 63.4772 40.4771 59 46 59H136C141.523 59 146 63.4772 146 69V72C146 73.1046 146.895 74 148 74H151C153.761 74 156 76.2386 156 79V112C156 114.761 153.761 117 151 117H148C146.895 117 146 117.895 146 119V123C146 128.523 141.523 133 136 133H46C40.4772 133 36 128.523 36 123Z" fill="white" fill-opacity="0.12"/>
<path d="M53.5 74C53.5 72.8954 52.6046 72 51.5 72C50.3954 72 49.5 72.8954 49.5 74H53.5ZM49.5 117C49.5 118.105 50.3954 119 51.5 119C52.6046 119 53.5 118.105 53.5 117H49.5ZM69.5 74C69.5 72.8954 68.6046 72 67.5 72C66.3954 72 65.5 72.8954 65.5 74H69.5ZM65.5 117C65.5 118.105 66.3954 119 67.5 119C68.6046 119 69.5 118.105 69.5 117H65.5ZM85.5 74C85.5 72.8954 84.6046 72 83.5 72C82.3954 72 81.5 72.8954 81.5 74H85.5ZM81.5 117C81.5 118.105 82.3954 119 83.5 119C84.6046 119 85.5 118.105 85.5 117H81.5ZM101.5 74C101.5 72.8954 100.605 72 99.5 72C98.3954 72 97.5 72.8954 97.5 74H101.5ZM97.5 117C97.5 118.105 98.3954 119 99.5 119C100.605 119 101.5 118.105 101.5 117H97.5ZM117.5 74C117.5 72.8954 116.605 72 115.5 72C114.395 72 113.5 72.8954 113.5 74H117.5ZM113.5 117C113.5 118.105 114.395 119 115.5 119C116.605 119 117.5 118.105 117.5 117H113.5ZM133.5 74C133.5 72.8954 132.605 72 131.5 72C130.395 72 129.5 72.8954 129.5 74H133.5ZM129.5 117C129.5 118.105 130.395 119 131.5 119C132.605 119 133.5 118.105 133.5 117H129.5ZM34 69V123H38V69H34ZM46 135H136V131H46V135ZM148 123V119H144V123H148ZM148 119H151V115H148V119ZM158 112V79H154V112H158ZM151 72H148V76H151V72ZM148 72V69H144V72H148ZM136 57H46V61H136V57ZM49.5 74V117H53.5V74H49.5ZM65.5 74V117H69.5V74H65.5ZM81.5 74V117H85.5V74H81.5ZM97.5 74V117H101.5V74H97.5ZM113.5 74V117H117.5V74H113.5ZM129.5 74V117H133.5V74H129.5ZM148 69C148 62.3726 142.627 57 136 57V61C140.418 61 144 64.5817 144 69H148ZM148 72H144C144 74.2091 145.791 76 148 76V72ZM158 79C158 75.134 154.866 72 151 72V76C152.657 76 154 77.3431 154 79H158ZM151 119C154.866 119 158 115.866 158 112H154C154 113.657 152.657 115 151 115V119ZM148 119V115C145.791 115 144 116.791 144 119H148ZM136 135C142.627 135 148 129.627 148 123H144C144 127.418 140.418 131 136 131V135ZM34 123C34 129.627 39.3726 135 46 135V131C41.5817 131 38 127.418 38 123H34ZM38 69C38 64.5817 41.5817 61 46 61V57C39.3726 57 34 62.3726 34 69H38Z" fill="#EBEEF7"/>
</svg>
