<svg width="192" height="192" viewBox="0 0 192 192" fill="none" xmlns="http://www.w3.org/2000/svg">
<path d="M58 79C58 58.0132 75.0132 41 96 41C116.987 41 134 58.0132 134 79C134 90.2635 129.1 100.382 121.314 107.341C117.201 111.017 114 115.915 114 121.431V129C114 130.105 113.105 131 112 131H80C78.8954 131 78 130.105 78 129V121.431C78 115.915 74.7987 111.017 70.6857 107.341C62.9005 100.382 58 90.2635 58 79Z" fill="white" fill-opacity="0.12"/>
<path d="M96 52C110.912 52 123 64.0883 123 79M96 41C75.0132 41 58 58.0132 58 79C58 90.2635 62.9005 100.382 70.6857 107.341C74.7987 111.017 78 115.915 78 121.431V129C78 130.105 78.8954 131 80 131H112C113.105 131 114 130.105 114 129V121.431C114 115.915 117.201 111.017 121.314 107.341C129.1 100.382 134 90.2635 134 79C134 58.0132 116.987 41 96 41Z" stroke="#EBEEF7" stroke-width="4" stroke-linecap="round"/>
<path d="M110.5 146H81.5C79.567 146 78 144.433 78 142.5C78 140.567 79.567 139 81.5 139H110.5C112.433 139 114 140.567 114 142.5C114 144.433 112.433 146 110.5 146Z" fill="white" fill-opacity="0.12"/>
<path d="M106.5 161H85.5C83.567 161 82 159.433 82 157.5C82 155.567 83.567 154 85.5 154H106.5C108.433 154 110 155.567 110 157.5C110 159.433 108.433 161 106.5 161Z" fill="white" fill-opacity="0.12"/>
<path d="M110.5 146H81.5C79.567 146 78 144.433 78 142.5C78 140.567 79.567 139 81.5 139H110.5C112.433 139 114 140.567 114 142.5C114 144.433 112.433 146 110.5 146Z" stroke="#EBEEF7" stroke-width="4" stroke-linecap="round"/>
<path d="M106.5 161H85.5C83.567 161 82 159.433 82 157.5C82 155.567 83.567 154 85.5 154H106.5C108.433 154 110 155.567 110 157.5C110 159.433 108.433 161 106.5 161Z" stroke="#EBEEF7" stroke-width="4" stroke-linecap="round"/>
</svg>
