<svg width="192" height="192" viewBox="0 0 192 192" fill="none" xmlns="http://www.w3.org/2000/svg">
<rect x="40" y="40" width="112" height="112" rx="10" fill="white" fill-opacity="0.12"/>
<circle cx="114" cy="96" r="8" fill="#FFD517"/>
<circle cx="86" cy="74" r="8" fill="#FFD517"/>
<circle cx="78" cy="111" r="8" fill="#FFD517"/>
<path d="M78 74C78 69.5817 81.5817 66 86 66C90.4183 66 94 69.5817 94 74C94 78.4183 90.4183 82 86 82C81.5817 82 78 78.4183 78 74Z" fill="#FFD517"/>
<path d="M70 111C70 106.582 73.5817 103 78 103C82.4183 103 86 106.582 86 111C86 115.418 82.4183 119 78 119C73.5817 119 70 115.418 70 111Z" fill="#FFD517"/>
<path d="M43.1175 145.324C42.4678 144.43 41.217 144.233 40.3237 144.883C39.4304 145.532 39.2329 146.783 39.8825 147.676L43.1175 145.324ZM141.5 154C142.605 154 143.5 153.105 143.5 152C143.5 150.895 142.605 150 141.5 150V154ZM147.752 148.529C147.215 149.494 147.563 150.712 148.529 151.248C149.494 151.785 150.712 151.437 151.248 150.471L147.752 148.529ZM56 38C54.8954 38 54 38.8954 54 40C54 41.1046 54.8954 42 56 42V38ZM47.0077 43.2276C47.9618 42.671 48.2841 41.4464 47.7276 40.4923C47.171 39.5382 45.9464 39.2159 44.9923 39.7724L47.0077 43.2276ZM38 138C38 139.105 38.8954 140 40 140C41.1046 140 42 139.105 42 138H38ZM62 169C62 170.105 62.8954 171 64 171C65.1046 171 66 170.105 66 169H62ZM78 169C78 170.105 78.8954 171 80 171C81.1046 171 82 170.105 82 169H78ZM94 169C94 170.105 94.8954 171 96 171C97.1046 171 98 170.105 98 169H94ZM110 169C110 170.105 110.895 171 112 171C113.105 171 114 170.105 114 169H110ZM126 169C126 170.105 126.895 171 128 171C129.105 171 130 170.105 130 169H126ZM169 130C170.105 130 171 129.105 171 128C171 126.895 170.105 126 169 126V130ZM169 114C170.105 114 171 113.105 171 112C171 110.895 170.105 110 169 110V114ZM169 98C170.105 98 171 97.1046 171 96C171 94.8954 170.105 94 169 94V98ZM169 82C170.105 82 171 81.1046 171 80C171 78.8954 170.105 78 169 78V82ZM169 66C170.105 66 171 65.1046 171 64C171 62.8954 170.105 62 169 62V66ZM130 23C130 21.8954 129.105 21 128 21C126.895 21 126 21.8954 126 23H130ZM114 23C114 21.8954 113.105 21 112 21C110.895 21 110 21.8954 110 23H114ZM98 23C98 21.8954 97.1046 21 96 21C94.8954 21 94 21.8954 94 23H98ZM82 23C82 21.8954 81.1046 21 80 21C78.8954 21 78 21.8954 78 23H82ZM66 23C66 21.8954 65.1046 21 64 21C62.8954 21 62 21.8954 62 23H66ZM23 62C21.8954 62 21 62.8954 21 64C21 65.1046 21.8954 66 23 66V62ZM23 78C21.8954 78 21 78.8954 21 80C21 81.1046 21.8954 82 23 82V78ZM23 94C21.8954 94 21 94.8954 21 96C21 97.1046 21.8954 98 23 98V94ZM23 110C21.8954 110 21 110.895 21 112C21 113.105 21.8954 114 23 114V110ZM23 126C21.8954 126 21 126.895 21 128C21 129.105 21.8954 130 23 130V126ZM86 96H84V98H86V96ZM150.112 148.398L151.861 149.369L150.112 148.398ZM42.5049 147.882L44.1224 146.705L42.5049 147.882ZM39.8825 147.676L40.8874 149.058L44.1224 146.705L43.1175 145.324L39.8825 147.676ZM151.248 150.471L151.861 149.369L148.364 147.426L147.752 148.529L151.248 150.471ZM44.9923 39.7724L43.9535 40.3784L45.969 43.8335L47.0077 43.2276L44.9923 39.7724ZM50.5922 154H64V150H50.5922V154ZM62 152V169H66V152H62ZM64 154H80V150H64V154ZM78 152V169H82V152H78ZM80 154H96V150H80V154ZM94 152V169H98V152H94ZM96 154H112V150H96V154ZM110 152V169H114V152H110ZM112 154H128V150H112V154ZM128 154H141.5V150H128V154ZM126 152V169H130V152H126ZM154 141.113V128H150V141.113H154ZM152 130H169V126H152V130ZM154 128V112H150V128H154ZM152 114H169V110H152V114ZM154 112V96H150V112H154ZM152 98H169V94H152V98ZM154 96V80H150V96H154ZM152 82H169V78H152V82ZM154 80V64H150V80H154ZM154 64V50H150V64H154ZM152 66H169V62H152V66ZM142 38H128V42H142V38ZM130 40V23H126V40H130ZM128 38H112V42H128V38ZM114 40V23H110V40H114ZM112 38H96V42H112V38ZM98 40V23H94V40H98ZM96 38H80V42H96V38ZM82 40V23H78V40H82ZM80 38H64V42H80V38ZM64 38H56V42H64V38ZM66 40V23H62V40H66ZM38 50.7437V64H42V50.7437H38ZM40 62H23V66H40V62ZM38 64V80H42V64H38ZM40 78H23V82H40V78ZM38 80V96H42V80H38ZM40 94H23V98H40V94ZM38 96V112H42V96H38ZM40 110H23V114H40V110ZM38 112V128H42V112H38ZM38 128V138H42V128H38ZM40 126H23V130H40V126ZM133 125V66H129V125H133ZM114 86C108.477 86 104 90.4772 104 96H108C108 92.6863 110.686 90 114 90V86ZM104 96C104 101.523 108.477 106 114 106V102C110.686 102 108 99.3137 108 96H104ZM114 106C119.523 106 124 101.523 124 96H120C120 99.3137 117.314 102 114 102V106ZM124 96C124 90.4772 119.523 86 114 86V90C117.314 90 120 92.6863 120 96H124ZM86 64C80.4772 64 76 68.4772 76 74H80C80 70.6863 82.6863 68 86 68V64ZM76 74C76 79.5228 80.4772 84 86 84V80C82.6863 80 80 77.3137 80 74H76ZM86 84C91.5228 84 96 79.5228 96 74H92C92 77.3137 89.3137 80 86 80V84ZM96 74C96 68.4772 91.5228 64 86 64V68C89.3137 68 92 70.6863 92 74H96ZM78 101C72.4772 101 68 105.477 68 111H72C72 107.686 74.6863 105 78 105V101ZM68 111C68 116.523 72.4772 121 78 121V117C74.6863 117 72 114.314 72 111H68ZM78 121C83.5228 121 88 116.523 88 111H84C84 114.314 81.3137 117 78 117V121ZM88 111C88 105.477 83.5228 101 78 101V105C81.3137 105 84 107.686 84 111H88ZM60 66V74H64V66H60ZM60 74V125H64V74H60ZM78 72H62V76H78V72ZM84 82V96H88V82H84ZM126 59H114V63H126V59ZM114 59H67V63H114V59ZM116 88V61H112V88H116ZM86 98H96V94H86V98ZM96 98H106V94H96V98ZM96 132H126V128H96V132ZM94 96V130H98V96H94ZM67 132H78V128H67V132ZM78 132H96V128H78V132ZM76 119V130H80V119H76ZM133 66C133 62.134 129.866 59 126 59V63C127.657 63 129 64.3431 129 66H133ZM60 125C60 128.866 63.134 132 67 132V128C65.3431 128 64 126.657 64 125H60ZM129 125C129 126.657 127.657 128 126 128V132C129.866 132 133 128.866 133 125H129ZM43.9535 40.3784C40.2669 42.5289 38 46.4757 38 50.7437H42C42 47.8984 43.5113 45.2672 45.969 43.8335L43.9535 40.3784ZM64 66C64 64.3431 65.3431 63 67 63V59C63.134 59 60 62.134 60 66H64ZM154 50C154 43.3726 148.627 38 142 38V42C146.418 42 150 45.5817 150 50H154ZM151.861 149.369C153.264 146.844 154 144.002 154 141.113H150C150 143.322 149.437 145.495 148.364 147.426L151.861 149.369ZM40.8874 149.058C43.1455 152.163 46.753 154 50.5922 154V150C48.0328 150 45.6278 148.775 44.1224 146.705L40.8874 149.058Z" fill="#EBEEF7"/>
</svg>
